/* XPM */
static char *_6be1bf36f5543fdec110fb0257deed2Q5QQfm4FdrH2GWwr[] = {
/* columns rows colors chars-per-pixel */
"64 64 71 1 ",
"  c #56BC3B",
". c #5BBD3B",
"X c #63BE3B",
"o c #6BBE3C",
"O c #72BE3B",
"+ c #65C03D",
"@ c #6DC03D",
"# c #73C13D",
"$ c #7BC33E",
"% c #79C540",
"& c #83C53E",
"* c #8EC73F",
"= c #8EC83E",
"- c #90C53F",
"; c #90C63F",
": c #92C63E",
"> c #94C73E",
", c #97C63E",
"< c #97C73F",
"1 c #98C73F",
"2 c #98C83F",
"3 c #82C540",
"4 c #82C640",
"5 c #86C640",
"6 c #87C740",
"7 c #88C440",
"8 c #8BC640",
"9 c #8BC740",
"0 c #8DC640",
"q c #8FC740",
"w c #90C640",
"e c #91C741",
"r c #96C742",
"t c #9AC740",
"y c #9CC741",
"u c #90C844",
"i c #99C840",
"p c #9BC943",
"a c #9EC941",
"s c #9CC942",
"d c #9DC843",
"f c #94C74A",
"g c #9AC954",
"h c #A0C941",
"j c #A3C941",
"k c #A2CB44",
"l c #A7CC44",
"z c #A9CB42",
"x c #ABCC43",
"c c #A9CC45",
"v c #AACC44",
"b c #A9CE47",
"n c #ADCC44",
"m c #ADCD45",
"M c #AECC44",
"N c #AFCC45",
"B c #AECF46",
"V c #B3CD45",
"C c #B0CD46",
"Z c #B7CE46",
"A c #BBCF47",
"S c #BDCF47",
"D c #B4CF48",
"F c #B6D047",
"G c #B3D048",
"H c #B8D048",
"J c #A3CC64",
"K c #AED179",
"L c #C3CF46",
"P c #C3CF47",
"I c #B3D483",
/* pixels */
"****;q******;e****;*q**=$+ .8BLPCyDlXXO8************;*********;*",
"***;*q*=**e=*==****;*e**=$..XuDSdOclX$88;*****************;*;***",
"****;=;***=***e**e*******8&%.XOGc8e*588**************;********;*",
"*****q=*;*e*;e=**;*qe****=88oXOlje;;*******************;***=****",
";***;*e*=***==****;;;******q=5=*;;****8*8;*****8**;*****=******=",
"********;*e**eq;******;*****==***e**=$$#&8;****=***********;**==",
";***;***q**;*;;=,;*******q*;*****;**9O. @5*q**q=**;***;*********",
"******;qe=**;;sBxj;*******q********8=$#..o$*8OooO&**;***********",
";*********q=e2BLBi5&**e******===;**8**5X. O8$@. o&==*-**********",
"********e=;*2BZZ9oX$*;*8=8***=&===**;*=4o.o4@..%&**==***********",
"***;;**;*=*=,VB*o.@$**$#o$=**$##$****8*=%O%8XXo&**---=*;*******e",
"*;*;*****;e*,BroX@4q**OX X$&&o XO=******q*85@@5*****=***********",
"*******=*****tq&$&9***&#X.X@&@.$&8**;*******&&***,-:;*;*;-****--",
"**;***==**e;;****q***;;=#X .#o@&8*******;***8*;;,,z2;;*;*-&**-**",
"**********q**q**;*;**;**8$...$&******;*;;;,;*;;ejAAx;**-=*******",
"************;****q**q**;8&#%O&**********txNxt;;jVAj$OO**********",
";*e*=q=e**;*;**;=*=e****=***********;8=&8kCSx,2xAl$.X#**==******",
";**q;****;**;***;******;************;*5XXo*HAV1xlOX+$&=**=******",
"=*==*e=;*****;**e*;******=************=@X.orxC,2i$oO&***********",
"*e*;*=q*;******;=q=e*;**;**;*******;**8=%..osx::q***************",
"q;*q***=;*;*=;*******;***************;*q%$#$,,,-ee**************",
"=**==eq;********;*;****;**********;*****88;8***-*******;;*;*****",
"***;e=*=******************;***;**************--**q**************",
"**=;***e**************;=********;*;**;q*;*****==**;*****-*******",
"***********;********=******;-;;;*********-=******************=**",
"**;****;*;**********==***;**-;*******;*;*=-=*=***-******;*******",
"*******;;******=*;***********&*******;********-*-==*************",
"****************=***********************-=**=**=*****;*********;",
"***===****;***==;*;***==*;**********;******-**********;*-*******",
"**=***;**;******e=******=*;*****;*;*******-**==**************-;*",
"*****************=e***************************-******;*=********",
"***=****;*;************=***;*;***;***===**-*************;*******",
"*******e***;*q;*e*******;;**q8;**************;*****;==*********7",
"*******=****;**q****;**q*8**;**8****==*****;***e****==*******;-;",
"******q*=e*q*q;****q**q**e***;******;**********=**************&*",
"**;***;=**=;****e=**q**=******8*******;**e****;*************=*XO",
"*=***q=*;*;=*****=q&$$$8*&$#$&**;*;****;8;;*;**;*************&.X",
"*=;*;=e*=q*q*****;8#..@5*$X X#*=***;*;***;;,;-**;*******=****&. ",
";******;;qq=*******$@..@$$..#&8***;;****;;iNNjr**;***;*****;*&$X",
"****e=q****e*****q*=%$..@#Xo5***;;s22,;*,yNAc,&8*************==$",
"**;************=****=4@ .o$&**=qq;BZAj;;jZAV&XXO**,&*****;*****&",
"***=;*********q******=$#OO=***8=&#82SCx*cSc5o.O&*;;fJJ**********",
"***=****&&*****=&&*****=*&**=**=$X.OBZA1jZeoXo&**;;gIK**=*******",
"==*=***&+$q****=##&************==%..#jZ1rtrO$&**8*-fgg;*********",
"*******& X#8=q%$X+&8*************&OoOrv;;*******;**q*;**&*;**;**",
"****;**9  .&=&$. X&*********=******&88**********;;*q*-;;;;****-7",
";***q**6.  4&#. @$=8********=**e******************;*;-**--;;=*--",
"*******9X. 44X  $&**e;***=*****;******************e*&;;=*;&=***-",
"*;****;q&@ 4&.  $=8*******e**;*;************=*********=*********",
"q****;*=9&#9&+.#$******e;*****8;********************************",
";********=&*&X@6***q**e*e**;*;********=9***************;********",
"***********;=$$9q**;***;q*************==*=&O&***=***************",
"*;=e********===******;***;;;;;***8**&=&==&@X$=**=*;***;*******;*",
"q*q****;****=****8;;;;e**sFG;******$X.X4O ..$***********;*=*****",
"*=*;************=*eijj,;;sHG&&=****&@. $+..@&********=****=***-*",
"*;q***;=*********=qiGAv,,jFvo$=*****&+   .@&**;***;****;;*******",
"***********;*;***&oO&BAZCk&O$&*******O$.XO&===**-=-=--*-********",
"**********8******$X.orHSCroo********7**XO*===***==-==**,=*******",
"******;**********=&o.X*D*O45**;********&&-******=-=-=--&;*******",
"***;***************$##7i&$=***********=******=**-==-==-;******;;",
"******;*************8**;****;*****************==-==-**;&*-;&****",
"*=**e**q*************q***8**;**;***-****==***=-==*****&,*-;=****",
"*******************q**;***;*;**=*****;**===***=---*=**-*==*=-*&&",
"****;****;********qufu*****q************-=--*-=-:-&=********-*,O"
};
