/* XPM */
static char *_e6934b0c56e4666d07e7647ed888a55o9A29k4gqY7JEBhZ[] = {
/* columns rows colors chars-per-pixel */
"32 32 173 2 ",
"   c None",
".  c #603E08",
"X  c #6C4305",
"o  c #6F4807",
"O  c #6B430C",
"+  c #714604",
"@  c #744C05",
"#  c #794B05",
"$  c #7D4A0A",
"%  c #7C530C",
"&  c #7A5003",
"*  c #7E5816",
"=  c #7B5524",
"-  c #864E05",
";  c #805305",
":  c #8B5105",
">  c #885C08",
",  c #8B5408",
"<  c #985605",
"1  c #814E11",
"2  c #875417",
"3  c #965818",
"4  c #955814",
"5  c #AF5D06",
"6  c #A35908",
"7  c #B35907",
"8  c #A95E10",
"9  c #8B640F",
"0  c #92630B",
"q  c #9A6C0D",
"w  c #98680B",
"e  c #9F7109",
"r  c #826117",
"t  c #916510",
"y  c #996515",
"u  c #9D7317",
"i  c #BD6409",
"p  c #A97D0D",
"a  c #A36313",
"s  c #A8691D",
"d  c #B16511",
"f  c #B96813",
"g  c #A17019",
"h  c #955F23",
"j  c #89672D",
"k  c #94622A",
"l  c #9E7425",
"z  c #9B6930",
"x  c #8F7336",
"c  c #987B38",
"v  c #C16A10",
"b  c #8F6E45",
"n  c #957742",
"m  c #AA7844",
"M  c #B2830F",
"N  c #B98C14",
"B  c #BA8A1B",
"V  c #BC9012",
"C  c #A98422",
"Z  c #B38822",
"A  c #BD983B",
"S  c #C49414",
"D  c #C59719",
"F  c #D9AC1F",
"G  c #E0B11F",
"H  c #C79A20",
"J  c #C89B20",
"K  c #D6A825",
"L  c #DEB325",
"P  c #C9A033",
"I  c #DFB333",
"U  c #EABF2A",
"Y  c #E4BA2B",
"T  c #E6BA3A",
"R  c #EDC73E",
"E  c #F5CF3D",
"W  c #A28443",
"Q  c #BD9B40",
"!  c #A38554",
"~  c #A39473",
"^  c #D0B140",
"/  c #D3B456",
"(  c #E3BE44",
")  c #EBC547",
"_  c #F3CC40",
"`  c #E9C754",
"'  c #F0CB57",
"]  c #F2D456",
"[  c #E1CE6E",
"{  c #F5DC6A",
"}  c #F4D975",
"|  c #FAE47F",
" . c #6A768D",
".. c #757D8F",
"X. c #747E94",
"o. c #76839A",
"O. c #7D889F",
"+. c #788398",
"@. c #9D948D",
"#. c #838B9D",
"$. c #88909F",
"%. c #BAAB8C",
"&. c #BAAB9D",
"*. c #828CA0",
"=. c #8993A6",
"-. c #8C96AA",
";. c #8F98AA",
":. c #9097A7",
">. c #949BAA",
",. c #9A9FAF",
"<. c #9BA1AF",
"1. c #9DA3B2",
"2. c #BEAFA5",
"3. c #BBB6AD",
"4. c #A3A9B7",
"5. c #A5ACBB",
"6. c #A8AEBB",
"7. c #A0A6B4",
"8. c #ADB2BE",
"9. c #CFBC8D",
"0. c #C8BCA6",
"q. c #D9C98D",
"w. c #DDD692",
"e. c #ECDB8E",
"r. c #F0DD86",
"t. c #F9E58B",
"y. c #FAE894",
"u. c #D7D7AB",
"i. c #EFE4AD",
"p. c #F1E7A7",
"a. c #F9EBA7",
"s. c #FCEFB2",
"d. c #FCF3B8",
"f. c #AEB4C1",
"g. c #B1B6C2",
"h. c #B5B9C5",
"j. c #B6BCCA",
"k. c #BABEC9",
"l. c #BDC2CD",
"z. c #BBC2C5",
"x. c #C0C2C7",
"c. c #C0C4CF",
"v. c #DBDDCA",
"b. c #C2C6D0",
"n. c #C6CAD3",
"m. c #CBCED6",
"M. c #CCCFD9",
"N. c #CDD0D7",
"B. c #CFD2DA",
"V. c #D3D5DD",
"C. c #D6D8DF",
"Z. c #D9DBDC",
"A. c #DDD9D3",
"S. c #E1DDD6",
"D. c #E1E1C7",
"F. c #FCF7C7",
"G. c #FCF6CC",
"H. c #EDEDD8",
"J. c #FDF9D6",
"K. c #D7DAE0",
"L. c #DBDDE2",
"P. c #DFE0E6",
"I. c #E1E2E7",
"U. c #E3E5E9",
"Y. c #E7E9EC",
"T. c #EBEBEE",
"R. c #FCFBE0",
"E. c #EDEEF1",
"W. c #EFF0F3",
"Q. c #F1F1F3",
"!. c #F1F2F3",
"~. c #F1F2F4",
"^. c #F2F4F5",
/* pixels */
"              C.                                                ",
"            N.L.                                        C.      ",
"          8.L.m.                                        L.>.    ",
"        N.E.L.k.                                        U.,.    ",
"    X.6.T.T.m.                                          U.4.$.  ",
"    >.K.~.C.k.                                        U.U.g.1.:.",
"  +.l.E.U.n.                                          U.P.c.f.>.",
"  h.T.T.L.k.                                          T.L.n.g.1.",
"  j.W.U.B.h.                                          E.L.b.6.#.",
"4.K.~.U.M.h.                                          T.C.l.8.>.",
"-.P.^.L.b.j.                                        Q.Y.V.c.h.8.",
"-.B.E.K.b.k.                                        ^.U.V.c.g.6.",
"-.l.E.L.M.l.                                      W.W.U.m.h.4.,.",
"-.n.E.U.K.l.                                    Z.Q.U.K.c.7.$.  ",
"*.l.~.Y.K.k.                                    E.T.U.C.k.1.1.  ",
" .-.P.E.K.l.                                  W.W.Y.P.n.8.<.    ",
"  o.B.W.U.m.h.                              Q.~.T.U.m.g.,.      ",
"  o.5.P.Y.V.l.                            Q.~.T.I.N.g.:.        ",
"    O.j.U.P.Z.v.u.w.[ ^ C               Q.E.I.L.N.k.6.1.        ",
"    o.6.Y.H.i.r.{ ] R L V 0 *         T.E.L.K.C.M.k.f.          ",
"      l.D.p.a.y.{ E R G S p # %     Q.W.U.C.V.n.g.8.            ",
"      q.e.s.J.F.| _ U F V w # * %.T.E.U.C.m.k.>.X.              ",
"      / } d.J.G.} R Y S p t n 0.E.T.L.C.C.m.f.:.#.              ",
"    W A ` y.a.y.' T F V Q 9.S.W.T.Y.L.V.m.h.:.#.                ",
"    j l P ( ` ) I K S Z 9.A.P.P.C.x.6.1.=.+. .                  ",
"    = % u B J D S N p u c ~ 3.2.&.@.X.X.X.                      ",
"      O 1 0 q q q q w 9 r x ! m z b                             ",
"      . @ @ @ @ # & > 9 t y s 8 ,                               ",
"        X $ @ X + # : 0 a d f 8 2                               ",
"        O $ : : - : < i i v d 3                                 ",
"          = 1 : , 6 7 7 7 a k                                   ",
"              = 2 1 4 3 k                                       "
};
