/* XPM */
static char *_f93d108d4404f11bbc4129e1cbaadf6LKD6A7fgkyAyp6a7[] = {
/* columns rows colors chars-per-pixel */
"64 64 218 2 ",
"   c None",
".  c #5B3A07",
"X  c #653E04",
"o  c #613D0C",
"O  c #674105",
"+  c #6C4305",
"@  c #6D4906",
"#  c #734503",
"$  c #734B05",
"%  c #7B4B05",
"&  c #734B0A",
"*  c #7C4B0A",
"=  c #794608",
"-  c #7C5105",
";  c #78540C",
":  c #694514",
">  c #744813",
",  c #795316",
"<  c #7A5528",
"1  c #7C5B32",
"2  c #7E6222",
"3  c #515D75",
"4  c #4E5C77",
"5  c #59667E",
"6  c #854D06",
"7  c #884E06",
"8  c #835405",
"9  c #8C5305",
"0  c #885B07",
"q  c #935406",
"w  c #985707",
"e  c #895817",
"r  c #95550E",
"t  c #A45C06",
"y  c #A4590A",
"u  c #AA5A05",
"i  c #B85A06",
"p  c #8C620D",
"a  c #85600F",
"s  c #93640B",
"d  c #99690A",
"f  c #9D700D",
"g  c #886215",
"h  c #986611",
"j  c #B7630A",
"k  c #A2740D",
"l  c #A97C0C",
"z  c #A56311",
"x  c #AB6614",
"c  c #B86814",
"v  c #AB7B12",
"b  c #A57110",
"n  c #AE6208",
"m  c #865B26",
"M  c #945F20",
"N  c #866729",
"B  c #9E6B2B",
"V  c #997127",
"C  c #866637",
"Z  c #976D38",
"A  c #9A7837",
"S  c #8D783F",
"D  c #A76928",
"F  c #A57129",
"G  c #C36507",
"H  c #C36E14",
"J  c #C57013",
"K  c #8D6A41",
"L  c #8E7848",
"P  c #A67341",
"I  c #877C72",
"U  c #B3850E",
"Y  c #AD8213",
"T  c #B58513",
"R  c #BA8D12",
"E  c #B88B17",
"W  c #BC9013",
"Q  c #B48726",
"!  c #BA9538",
"~  c #A78531",
"^  c #C69818",
"/  c #D09F1B",
"(  c #CFA11B",
")  c #D8AA1C",
"_  c #C19A35",
"`  c #CDA221",
"'  c #D6A925",
"]  c #DFB323",
"[  c #CBA032",
"{  c #DAB033",
"}  c #E8BE2B",
"|  c #E5B925",
" . c #E5BA36",
".. c #EBC237",
"X. c #F2CA37",
"o. c #EBC026",
"O. c #9D8752",
"+. c #AF914A",
"@. c #BBA346",
"#. c #9A8A6F",
"$. c #B49A77",
"%. c #A88E77",
"&. c #BEA771",
"*. c #CEB75F",
"=. c #D4B14A",
"-. c #E4BA45",
";. c #CEB777",
":. c #EECA48",
">. c #F1CC4D",
",. c #F7D345",
"<. c #EBCB56",
"1. c #F1CD54",
"2. c #F6D759",
"3. c #D8C879",
"4. c #F3D564",
"5. c #F6DB6A",
"6. c #E9D474",
"7. c #F5DC71",
"8. c #EDD063",
"9. c #F9E37D",
"0. c #F9E26F",
"q. c #5D6B83",
"w. c #636F86",
"e. c #6B758B",
"r. c #697589",
"t. c #747D8E",
"y. c #6B7892",
"u. c #737E94",
"i. c #758096",
"p. c #7B8495",
"a. c #7C869B",
"s. c #79869B",
"d. c #7F8BA1",
"f. c #838B9D",
"g. c #8E9097",
"h. c #B19B83",
"j. c #B2A490",
"k. c #848DA1",
"l. c #8691A5",
"z. c #8C94A5",
"x. c #8E99AC",
"c. c #8994A8",
"v. c #949CAC",
"b. c #969DAB",
"n. c #969EB0",
"m. c #99A0AE",
"M. c #9DA3B2",
"N. c #A1A6B5",
"B. c #A3AAB6",
"V. c #A5ABBA",
"C. c #AAAEBC",
"Z. c #ABABB0",
"A. c #ACB1BD",
"S. c #BEBDBE",
"D. c #B6B0A9",
"F. c #C2B28C",
"G. c #D6CE90",
"H. c #EADB8D",
"J. c #F9E48A",
"K. c #EEE19B",
"L. c #F8E799",
"P. c #D1C6AF",
"I. c #D8D6A7",
"U. c #D7CEBF",
"Y. c #D0D8B9",
"T. c #E5DAB9",
"R. c #FBECA6",
"E. c #FCF0A7",
"W. c #FCF3B8",
"Q. c #E9E4B2",
"!. c #AEB4C1",
"~. c #B2B6C2",
"^. c #B4B9C5",
"/. c #B5BBC8",
"(. c #BABEC9",
"). c #B9BCC6",
"_. c #BEC2CD",
"`. c #C1C4CE",
"'. c #C6C4C6",
"]. c #C3C6D1",
"[. c #C6CAD3",
"{. c #CACDD5",
"}. c #CCCED9",
"|. c #CED2D6",
" X c #CED1D9",
".X c #CCD8D3",
"XX c #D3D6DD",
"oX c #D5D9DE",
"OX c #D8DADE",
"+X c #D2D5C7",
"@X c #E4DED3",
"#X c #DEE0C0",
"$X c #FCF6C8",
"%X c #E9E9D9",
"&X c #FCFAD8",
"*X c #EDEBCC",
"=X c #D6D9E1",
"-X c #DBDCE2",
";X c #D3D7E0",
":X c #E0DFE6",
">X c #DEE0E5",
",X c #DFE1E9",
"<X c #E1E2E6",
"1X c #E4E5EA",
"2X c #E7E8EC",
"3X c #E9EAED",
"4X c #EAEBEE",
"5X c #EDECE5",
"6X c #FAF9E8",
"7X c #EEEEF2",
"8X c #EDEDF1",
"9X c #EFF0F3",
"0X c #F1F2F5",
"qX c #F3F4F6",
"wX c #F3F3F5",
"eX c #F5F6F8",
"rX c #F8F9FA",
"tX c #F7F8F9",
/* pixels */
"                                ].                                                                                              ",
"                            oX<X{.                                                                            |.|.              ",
"                          [.2X<X~.                                                                            1X:X|.            ",
"                        A.1X0X{.                                                                              2X4X|.            ",
"                    f.p._.qX1XA.                                                                              2X0X{.z.          ",
"                  ~.`.).1X4X{.B.                                                                              2XwXXXb.          ",
"                C.OX0X8X0X-X_.                                                                                2XwX<XN.r.        ",
"            p.l.).4XrXwX1X|.~.                                                                                0XwX1XA.u.        ",
"          w.u.~.1X0XeX8X=X].                                                                                  7XwX<X~.f.        ",
"          w.n.-XeX0X7X:X{.).                                                                                  4X0X:X(.z.t.b.z.  ",
"        d.k.(.8XeX0X2XXX`.^.                                                                                  4X7X-X`.n.f.B.m.  ",
"      4 k.^.-X9X0X8X-X[.^.                                                                                    2X0XOX`.~.C.~.b.  ",
"      4 x.XX9X8X4X1XXX).A.                                                                                  [.1X8X=X[.(.^.C.c.  ",
"      a.^.2X0X8X2X<X{.).C.                                                                                  XX4X8X;X{._.(.C.l.  ",
"    n.(.>X0X0X2X1X-X[.~.V.                                                                                  1X9X1X X{._./.C.B.  ",
"    l.;XqX0X7X2X:XXX`.A.N.                                                                                  8X9X,X X}.].^.C.B.b.",
"    k.=XeXqX3X,X=X{._.A.                                                                                    qX9X-XXX|._.!.C.c.t.",
"    l.;XeXeX3X,XoX[.^.V.                                                                                    0X4X>XoX{._.!.B.t.r.",
"  !.^.=XqXqX3X>XoX[.^.V.                                                                                  9X9X2X>X=X[./.C.C.z.t.",
"u.!.,X2X0XqX2X-XXX{.^.B.                                                                                  wX9X<X>X X_.!.A.~.A.N.",
"y.n.,X7XeXeX1XXX{.].(.!.                                                                                3XqX9X<X=X{._.(.(.~.A.A.",
"y.c.;X0XeX9X<X X`.`._.~.                                                                                9XtX7X<XXX}.}.[.).^.~.  ",
"u.d.[.0XeX7X-X}._._._.^.                                                                              1XqXqX1X>X=XXX{.(.^.^.C.  ",
"c.k.^.2X0X7X<X X_.]._.~.                                                                              4XrXqX3X>X-X X_.^.).A.M.  ",
"x.c.V.-X9X8X,X;X[.[._.^.                                                                            <XqXtX0X1X:X=X].^.).~.V.v.  ",
"k.k.M.;X8X8X2X=X XXX_._.                                                                            4XrXqX4X<X-X X_.~.S.C.v.z.  ",
"d.c./. X4X9X1X-X=XoX_.^.                                                                          XX0XqX4X1X:XOX[.(.^.C.z.e.m.  ",
"c.x.}.1X8XqX4X-X>X>X_.!.                                                                        ).1XqX8X1X<X=XXX{._.C.f.t.f.N.  ",
"  k./.8X7X0X8X,X>XXX_.!.                                                                        OXqXwX2X1X<X=XXXXX).z.k.M.A.    ",
"u.d.x.-X0X7X3X,X=X X]./.                                                                      XXtXqX4X1X2X<X:X;X].C.M.A.A.      ",
"w.u.u./.8X0X2X2X>X X]./.                                                                      0XrX9X2X1X<X2X=X{.).A.B.B.        ",
"r.q.y.d.;X0X9X2X>XXX[._.~.                                                                  7XtX0X4X2X1X<X-X{._.~.b.f.          ",
"  q.w.d._.9XeX8X1X>X X_.~.                                                                7XtX0X2X4X2X<XOX].).~.C.z.t.          ",
"    w.d./.2XeX9X4X1XoX[./.                                                              4XtXtX2X2X1X1X:X}.(.~.~.N.z.            ",
"    s.u.n. X9X9X4X2X-X|._.B.                                                          5XwXtX7X2X2X2X<XXX].^.C.z.f.              ",
"      i.d.V. X8X4X1X-X|.[.~.                                                        7XwXtX7X2X2X1X<XOX`.~.b.p.e.f.              ",
"        s.d.V.;X8X1X=XXX|.|.|.OX.X+XY.I.G.3.3.@.! O.                              4XtX0X4X1X1X:X-X{.(.A.N.b.M.M.V.              ",
"        s.y.x.[.3X8X2X<X1X%X%X#XI.H.G.6.8.>.} ` Y f g N                         7XeX7X1X-X-XOXXX{._.`.`.(.~.C.C.                ",
"        d.y.c._.1XwX0X5X*XQ.K.H.6.5.4.2.1.:...) ^ l s ; , C                 OX7XqX7X1X=XXXXXXXXX|.{.{.(.~.C.C.                  ",
"          i.x._.2X9X%X*XK.J.5.5.4.2.2.,.X.o.| ) ^ R k 0 ; ; 2             -X7XqX8X2X1X-XXXOX-X-XXX].).A.C.C.                    ",
"              /.-X%XQ.K.L.L.J.9.0.2.,.X.o.o.| ) ( R l s - - ; 2         1X0XwX7X4X2X:XXXXXOXXX|.].(.A.A.~.                      ",
"               X+XQ.L.L.E.W.W.E.0.2.,.X.o.o.o.) ( R U d 0 - $ $ N     2XeXeX9X4X2X:XXX{.}.{.{.`.C.M.                            ",
"              I.G.L.R.W.$X&X$XW.L.2.,.X.o.o.] ) ^ R l d - - @ ; 2 j.<XrXrXeX4X1X-XXX|.{.{.`.(.m.r.p.                            ",
"            G.3.6.J.R.$X6X6X&X$XE.0.,.X.o.o.] ( ^ U d 0 - $ @ N j.%XtXtX8X2X<X=X-X=XXX{.(.B.z.w.3 p.                            ",
"          ;.*.*.8.J.E.&X6XrX6X$XL.4.:.....] ' ^ T k s 0 6 , L P.6XqX9X2X-X=XXX;XXXXX X[.!.M.v.x.z.p.                            ",
"          @.=.=.8.7.R.$X&X&X&XW.J.1.....} ] ( W l b s 0 C h.@X0X0X0X9X1X-X=X=XXX=XoXXX}._.~.V.v.f.f.                            ",
"          +.+.=.<.5.J.E.$XW.W.L.7.>.:. .} ' ^ Y v E _ &.+X5X0X0X0X9X8X2X1X-X-XOX=XXX}._.~.n.f.f.                                ",
"          A F _ =.<.0.J.L.L.J.7.<.:.-.{ ] ( E Y _ ;.T.5X7X7X7X7X8X2X1X1X-XXXXX{.[._.~.V.x.e.r.                                  ",
"          N V Q [ -.<.1.4.5.4.>. . .{ ' / ^ l Q ;.%X0X8X2X2X2X1X<XXX|.{.].(.~.C.N.n.f.u.w.w.e.                                  ",
"          m g F Q [ { {  . . . .{ ' ' ^ ^ c v ! ;.P.+X+X@XOXOXOXXX{.S.Z.v.x.c.d.a.e.5 q.e.                                      ",
"          , e g F Q E ` ` [ ' ' / ^ ^ ^ ^ U k v +.O.P Z.S.'.'.'.+X'.Z.g.e.y.y.u.u.u.s.                                          ",
"          : + * 0 b v T E ^ ^ E R v l U U l d p 0 2 L %.D.D.j.%.h.h.%.I r.u.                                                    ",
"          : o + 6 0 b k v Y v k k f f f f d s a ; 2 O.S O.$.$.P B Z Z I                                                         ",
"          : . O & % 8 0 0 w p p p s s s s p p g g g N Z S A D D D M m                                                           ",
"            . O & & # $ - - % % - - 8 8 p p p a p h h h V F x y r 6 m                                                           ",
"            . . @ & @ @ @ O O X + # % % 8 a p s p s h h x c i y q >                                                             ",
"              . O & $ # @ X X X X X 6 % 6 q d h s s z c c c i y 6 m                                                             ",
"                X + * * % % # + 6 X = 6 9 w d d z x c c H c n r e                                                               ",
"                o + 6 7 9 q 6 % X 6 X 6 9 w t n j H J J H i y e                                                                 ",
"                  : > * 9 w w w q q q q w n n j G G G J c w e                                                                   ",
"                    1 > = 6 q w w y u u i i i i i i i x r m                                                                     ",
"                        < = = 6 7 q y u u i i i u u r e C                                                                       ",
"                            < > > 6 X 6 q q y r e C K                                                                           ",
"                                  C m < m m m K                                                                                 "
};
