/* XPM */
static char *_8c96506adaf4355ee6e6622ede30488FvWCrfLIVhMMaeSe[] = {
/* columns rows colors chars-per-pixel */
"64 64 215 2 ",
"   c None",
".  c #050405",
"X  c #080707",
"o  c #0C0907",
"O  c #090708",
"+  c #0D0B0A",
"@  c #060608",
"#  c #120E0C",
"$  c #160B07",
"%  c #15100F",
"&  c #1B120B",
"*  c #1F1307",
"=  c #110F10",
"-  c #151212",
";  c #1B1614",
":  c #1E1916",
">  c #1E1A19",
",  c #1A1718",
"<  c #0D0D10",
"1  c #290E0E",
"2  c #320E0E",
"3  c #23150B",
"4  c #2B1B0C",
"5  c #341E0B",
"6  c #381F0A",
"7  c #221211",
"8  c #291513",
"9  c #231A15",
"0  c #2B1C12",
"q  c #231D1B",
"w  c #2A1F19",
"e  c #341C16",
"r  c #371B19",
"t  c #2D210E",
"y  c #33230E",
"u  c #3C230C",
"i  c #37280F",
"p  c #2D2112",
"a  c #26211F",
"s  c #2B221D",
"d  c #352313",
"f  c #3B2514",
"g  c #3F2C15",
"h  c #32251C",
"j  c #3B231A",
"k  c #3C2A1C",
"l  c #221F22",
"z  c #2C2422",
"x  c #2E2A2A",
"c  c #272322",
"v  c #312621",
"b  c #332924",
"n  c #3C2D24",
"m  c #352D2A",
"M  c #3A2E29",
"N  c #3C312C",
"B  c #37312E",
"V  c #3B3331",
"C  c #3F3937",
"Z  c #531818",
"A  c #46260C",
"S  c #48270C",
"D  c #46290D",
"F  c #4A290D",
"G  c #442407",
"H  c #432914",
"J  c #4D2D11",
"K  c #452D1C",
"L  c #462A15",
"P  c #502F12",
"I  c #4D311C",
"U  c #493513",
"Y  c #52341B",
"T  c #553616",
"R  c #583D0E",
"E  c #683708",
"W  c #73221F",
"Q  c #422B20",
"!  c #443125",
"~  c #4A3423",
"^  c #44332A",
"/  c #4A372D",
"(  c #4D392D",
")  c #553823",
"_  c #5C3C23",
"`  c #553C2A",
"'  c #433631",
"]  c #423935",
"[  c #4D3C33",
"{  c #453D39",
"}  c #4A3E3A",
"|  c #523E31",
" . c #5A4218",
".. c #774B14",
"X. c #79581D",
"o. c #6E4F1A",
"O. c #5E412C",
"+. c #4C423E",
"@. c #554135",
"#. c #594435",
"$. c #5A4639",
"%. c #59463C",
"&. c #63442D",
"*. c #644B3C",
"=. c #6A4F3D",
"-. c #654834",
";. c #70533F",
":. c #5A4B45",
">. c #664E41",
",. c #665143",
"<. c #6C5343",
"1. c #6D594B",
"2. c #66534C",
"3. c #755B4A",
"4. c #7C5E4A",
"5. c #765945",
"6. c #6D5A55",
"7. c #7D614F",
"8. c #776359",
"9. c #7D6862",
"0. c #87181C",
"q. c #A8161A",
"w. c #A1201C",
"e. c #A01E20",
"r. c #8B2624",
"t. c #98362E",
"y. c #972123",
"u. c #AA2728",
"i. c #AF312E",
"p. c #CE161D",
"a. c #D3171E",
"s. c #FF0B1E",
"d. c #FF051D",
"f. c #E9121D",
"g. c #D21C23",
"h. c #CF1D25",
"j. c #EB1721",
"k. c #FF0E20",
"l. c #E7232A",
"z. c #804408",
"x. c #974F06",
"c. c #9E5208",
"v. c #A55606",
"b. c #B15B05",
"n. c #8E661F",
"m. c #916720",
"M. c #C76603",
"N. c #81624D",
"B. c #836653",
"V. c #856955",
"C. c #8B6B54",
"Z. c #886A56",
"A. c #93745C",
"S. c #99755B",
"D. c #906D55",
"F. c #A7795D",
"G. c #B07D5C",
"H. c #85726B",
"J. c #9C7B63",
"K. c #967864",
"L. c #856D68",
"P. c #A37E64",
"I. c #BB8827",
"U. c #CE941D",
"Y. c #EAA61E",
"T. c #EDA91F",
"R. c #FFB61D",
"E. c #FFB81F",
"W. c #F2AB1C",
"Q. c #C18C24",
"!. c #CA942A",
"~. c #D89E28",
"^. c #DFA021",
"/. c #E7A522",
"(. c #F2AD24",
"). c #FFBA20",
"_. c #FCB421",
"`. c #988279",
"'. c #AB8265",
"]. c #AB846A",
"[. c #A78368",
"{. c #B38A6C",
"}. c #B7896A",
"|. c #AB8971",
" X c #B68D71",
".X c #BC9273",
"XX c #B89379",
"oX c #C59A7A",
"OX c #CC9E7C",
"+X c #C39675",
"@X c #C48C67",
"#X c #D2A27E",
"$X c #DCA074",
"%X c #CEA07F",
"&X c #E9AB7C",
"*X c #A9958D",
"=X c #C19A80",
"-X c #D3A482",
";X c #DCAA85",
":X c #DAAB8A",
">X c #D9A782",
",X c #D6A887",
"<X c #E2AF89",
"1X c #E4B18B",
"2X c #EAB58E",
"3X c #E6B592",
"4X c #EAB691",
"5X c #EDB992",
"6X c #F3BC94",
"7X c #F6BF96",
"8X c #FAC297",
"9X c #F7C19A",
"0X c #FEC59B",
"qX c #FFC99D",
"wX c #F7C097",
/* pixels */
"                                                                                                                                ",
"                                                                                                                                ",
"                                                            C c ; - - ; , - , > z m                                             ",
"                                                        C > - a ^ / ! / ! ~ n b c > > q V                                       ",
"                                          = = = - = % - - b ~ Y P P F P P P P T Y ~ ! z ; > N                                   ",
"                                      > # = 9 w n K k K [ #.F J F P P F F F F F F J P Y ~ v , q +.                              ",
"                                  , = , 0 H J J J P J P J J F F P P F F F F F F F F J F J L ~ s ; V                             ",
"                                = - 0 D J J J J F F F F F F F P P F F F F F F F A F F J F F F I n 9 x                           ",
"                              - ; f F F J J J J P F F P P F F J F F F F F F F F F F F F D F D F J ! ; x                         ",
"                            , 9 f F J F F J J F F J F F F F F F F F F F F G G F G F S A F D D F A J ! - V                       ",
"                          q - f F F S A H F F F F F F F F F F S S S F F F F G S S A S A S D A D L A J k - C                     ",
"                        V ; 0 L F A A A A A F F F F F S F F F S F F S S G F F F S S A S D A D A A D J J s -                     ",
"                        l q H F A A A A S A S A S S S S S S S S S S F S S S F F S S A S A S S A A J F J ~ ; c                   ",
"                      } > g F F A A A A A A S A S S S S S F S S F S S S S F S S S S A S D A A A A F D J J k #                   ",
"                      M v F A A G S A S A S A u G S S S G F G S S S S F S S F S S S S S S S A S A A J J J Y 9 >                 ",
"                      l K A A A A A A G A A t X $ t A S S S F S S F F S F S S S S S A S A A S A F J A F J P k =                 ",
"                    / b J A A F A A G A S D # ^ h O 3 G F S F S F F F S F S S S S S D S A A S S F F F J F P I ; z               ",
"                    M n L A A A G A A S F h s J.4.>.- & G F F S F K * u F F S S S S S S A S S S F A Y h H P P 0 -               ",
"                    b ~ A A _ N j S S S O.9 1.P.G. XS.# & A F F S g . 3 S F F S S A F D A A S S F F ) , 3 J P f + N             ",
"                    v Y A A =.N #.F A J *.q N.C.@XP.7XC.+ 3 F F F G $ X u F F F S S Y a * u S D F D J 7 - J P J - c             ",
"                  6.w J A F =.v I S S _ ^ :.P.&X$XF.5X6X=.X 5 F F Y b . $ S F F S S ) a . 3 S F F F J j + H P P 0 -             ",
"                  N ; I f f &.q H S S -.z  X}.G.5.{.7XqX;X! o G F  .N : + 3 F J S S T q + o u F F J J K + f J P h -             ",
"                  9 # ! 9 ! ) ; r F P >.] 3X>XG.'.9XqX0X0X}.; 3 F &.M B.3.o 4 F F F _ z ,.b & D F F J ` # f J J L - ]           ",
"                    + + o ~ I ; u P _ %.8.0X1X5.C.-X2X8X0X0XN.o u -.b XX5X=.+ 4 F F &.z A.J.+ 4 J J J -.; H J P Y : :.          ",
"                    q 9 - K L % 4 F -.^ |.7X4.H H I ` ;.P.2X<Xb * ~ b 1X0X2X3.$ & A O.z ( -.b o D P P *.s O.j 4 K q H.          ",
"                        ; H J & & F =.M :X6X-.5 4 4 5 G A &.-XJ.# + 4.8X8X6XN.4 $ + : ; I ) K.> 3 J T >.M &.9 . + ,             ",
"                        # f J 4 X I $.%.6X Xm Q *.*.! 7 4 H ].6XD.B.1X0X0X:X) u & & n ! s p |.V.+ e _ / [ _ ! m ]               ",
"          z q           - f J L # n M A.].n A.3X8X8X4X+X| s #X0X0X0X0X0X0X5X#.s C.#X2X6X;XC.n A.@.o d ; ~ T / 2.                ",
"          h &           + 0 J &.w @ l  X[ ].0X7X+XJ.#X0X<X| V.0X0X0X0X0X0XOX^ {.0X5X+X#XwX0X'.n J.( = + f T / 9.                ",
"          h 4 c         + $ J O.9 $.].J.3.0X0X[.& . s oX0X.X^ ;X0X0X0XqX0X8.V.0X4X*.- 9 S.0X0X7.<.1XJ., d _ M `.                ",
"            0 0 V       # O 4 ) ; P.3X1. X0X9X,.. . . 7.0X5X@.|.7X7X7X9X3X2.;X0XXX- O o n 1XqXOX/ 1X:Xs j p s                   ",
"            s u s         # o 0 # w ^ z -X0X7X$.. . @ K.0X0X3.n %.| @.%.@.| 4XqX[.+ + + N 2X0X4X' @.%., 0 # m                   ",
"              k 5 l       @.> . . <..X! .X0X0X}.p & | #XqX9X7.Z.].'.P.'.D.! <X0X;X^ + & C.9X0X3X%.4.>.= o a                     ",
"              v u 3 x       q $.+ =.wX=.V.0X0X8X>X+X2X0X0X<X:.:XqXqX0XqX5X| .X0X0X;XP.}.6X0X0X=X,.6X|.l 1.:.                    ",
"                0 A >       # V.$.s ;X{.K >X0X0X0X0X0X0X9X7.<.8X0X0X0X0X0XN.=.6X0X0X0X0X8X0X6X>.V.7X2.%.V.+.                    ",
"                b d 4 l     ; ; s X 7.wX;.@.OX8X0X0X0X6XC.^ #XqX0X0X0X0XqX;X/ 7.5X0X0XqX0X2X3./ <X.X; q q {                     ",
"                  s G %       s : % : {.4X5.N 7.'.}.S.@.@.OX0X8X5X0X0X6X7XqXOX( | ].%XOX'.| | #X>X! ; :                         ",
"                    d u ,           ; 9 S.4X+X7.#.| =.S.1XqX0X2X<.C.S.<.;X0X0X1XD.| ~ ^ | D.<XOX^ ;                             ",
"                    h D 3 l           > % #. X5X8X6X0X0X0X0X0X9XOXN.5.+X7X0X0X0XqX6X<X1X5X;XB.9 -                               ",
"                      ; & + l           n : ; / D.oX1X6X0X0XqXqXqX0XqX0XqXqX0X0X8X5X;X|.5.h = l                                 ",
"                      9 5 F #             9.l 2 8 l v [ 5.Z.[.{.+XoXoXXX.X{.[.Z.=.N 9 3 $ 8                                     ",
"                      V 5 v.G +           8.s u.j.r.X...T g p 3 1 8 8 8 ; t t g R  .W p.e.q                                     ",
"                        a E x.*           :.9 g.k.u.~.).R.(.!.t.a.a.g.g.t.!.Y.W.E.!.i.s.h.^                                     ",
"                          0 ..G - x     V m # 0.h.t.I.^.^.^.I.t.f.j.j.j.i.!.T.Y.(.I.i.j.e.:.                                    ",
"                          N u E A + - + + O + + 7 9 9 4 4 e 4 3 2 2 2 2 7 4 t y i t 7 1 $ }                                     ",
"                          { u b.x.# . @ @ = ; ; > 9 = 8 y.q.q.q.Z v 1.; . . . . . . . . O 8.                                    ",
"                          9.# G b.S . O + # = ; , 7 - r l.s.d.k.0.m ] X + U R 4 . . . . . m                                     ",
"                          V w -.E c.4 @ . O . X + + < h j.d.d.s.r.. . . p /._.n.. . . . . q                                     ",
"                          > a J.j x.v.5 . . . ; + @ + 7 r.q.w.w.P . . . $ I.(. .. . . . . +                                     ",
"                          v + q % S M.v.& +   V + . . p Q.U.U.U.o.. . . . 4 U X . . . . . @ c                                   ",
"                            9 % + & z...9     ] O . O k (.E.E.E.m.@ . . . . . . . . . . . + ]                                   ",
"                                    % % ;     N . . . g (.R.E.E.m.. . . . . . . . . + % $ 9 *X                                  ",
"                                              9 . . . g ^.Y.Y.T.n.. . . . . . . . . 9 J.[.[ *X                                  ",
"                                            9.- . . . + t t t t 3 . . . . . . . . . o z b q                                     ",
"                                            2.@ . . . . . . . . . . . . . . . . . . . . . q                                     ",
"                                            z @ O . . . . . . . . . . . . . . . . . @ o +                                       ",
"                                                  ; - j e e e w = M q 9 r r r r 8 - c : s                                       ",
"                                                  V ; j e r e e w 8.V q Q r r H h z                                             ",
"                                                  V . X X . . . l B.B . O O + o X b                                             ",
"                                                9.q . . . . . . l L.m . X O O O . = }                                           ",
"                                                B @ @ @ @ @ . @ l H.M . + + . + o . :.                                          ",
"                                                w - + # # + + # 9 8.b + # + + + + + m                                           ",
"                                                                                                                                ",
"                                                                                                                                "
};
