/* XPM */
static char *result[] = {
/* columns rows colors chars-per-pixel */
"32 32 255 2 ",
"   c black",
".  c #010100",
"X  c #020200",
"o  c #040300",
"O  c #050400",
"+  c #060500",
"@  c #080600",
"#  c #080700",
"$  c #090800",
"%  c #0C0A00",
"&  c #0D0B00",
"*  c #0E0C00",
"=  c #100D00",
"-  c #110E00",
";  c #131000",
":  c #151100",
">  c #161200",
",  c #171300",
"<  c #181400",
"1  c #191400",
"2  c #191500",
"3  c #1A1600",
"4  c #1E1900",
"5  c #211B00",
"6  c #241D00",
"7  c #241E00",
"8  c #282200",
"9  c #2C2500",
"0  c #2D2500",
"q  c #2F2700",
"w  c #302700",
"e  c #302800",
"r  c #382E00",
"t  c #382F00",
"y  c #3C3100",
"u  c #3D3200",
"i  c #3D3300",
"p  c #3F3400",
"a  c #433700",
"s  c #443900",
"d  c #463A00",
"f  c #463B00",
"g  c #493D00",
"h  c #4E4100",
"j  c #4F4200",
"k  c #504200",
"l  c #514400",
"z  c #524400",
"x  c #564800",
"c  c #584900",
"v  c #5A4B00",
"b  c #5C4C00",
"n  c #5D4D00",
"m  c #5E4E00",
"M  c #5F4F00",
"N  c #655400",
"B  c #675500",
"V  c #675600",
"C  c #685600",
"Z  c #6B5800",
"A  c #6D5A00",
"S  c #6F5C00",
"D  c #705D00",
"F  c #715E00",
"G  c #746100",
"H  c #786300",
"J  c #786400",
"K  c #7A6500",
"L  c #7E6900",
"P  c #806A00",
"I  c #856F00",
"U  c #877100",
"Y  c #887100",
"T  c #8A7200",
"R  c #8E7600",
"E  c #8F7700",
"W  c #927900",
"Q  c #937A00",
"!  c #937B03",
"~  c #957C00",
"^  c #977E00",
"/  c #987E00",
"(  c #9D8200",
")  c #9E8300",
"_  c #A08601",
"`  c #A78B00",
"'  c #AB8E01",
"]  c #AC8F00",
"[  c #AE9000",
"{  c #AF9200",
"}  c #AE9103",
"|  c #B39501",
" . c #B59703",
".. c #B79800",
"X. c #B89900",
"o. c #BA9B01",
"O. c #BE9E00",
"+. c #BF9F00",
"@. c #BC9D03",
"#. c #BF9F03",
"$. c #BA9B04",
"%. c #C09F00",
"&. c #C1A100",
"*. c #CAA800",
"=. c #CCA900",
"-. c #C6A608",
";. c #D2AF00",
":. c #D6B100",
">. c #D5B102",
",. c #DAB500",
"<. c #D5B309",
"1. c #D6B30A",
"2. c #D1B00E",
"3. c #DBB80E",
"4. c #DDBB0F",
"5. c #E1BB00",
"6. c #E3BD00",
"7. c #E2BD02",
"8. c #E5BE00",
"9. c #E6BF00",
"0. c #E0BC0A",
"q. c #E4BF0C",
"w. c #E7C000",
"e. c #E8C000",
"r. c #E8C100",
"t. c #EDC500",
"y. c #EFC600",
"u. c #EFC700",
"i. c #EBC60E",
"p. c #F4CA00",
"a. c #F4CB00",
"s. c #F5CB00",
"d. c #F5CC00",
"f. c #F7CD00",
"g. c #F9CF00",
"h. c #FACF00",
"j. c #F6CF0D",
"k. c #FBD000",
"l. c #FBD100",
"z. c #FCD100",
"x. c #FDD200",
"c. c #FED301",
"v. c #FFD400",
"b. c #FFD500",
"n. c #FFD600",
"m. c gold",
"M. c #FFD702",
"N. c #FFD506",
"B. c #FFD800",
"V. c #FFD900",
"C. c #FFD801",
"Z. c #FFD901",
"A. c #FFDA00",
"S. c #FFDA06",
"D. c #FFD609",
"F. c #FFD709",
"G. c #FED50A",
"H. c #FFD60A",
"J. c #FFD60C",
"K. c #FFD60D",
"L. c #FDD50E",
"P. c #FED60E",
"I. c #FFD809",
"U. c #FFD909",
"Y. c #FFD80A",
"T. c #FFD80B",
"R. c #FFD80E",
"E. c #FFD90E",
"W. c #E5C212",
"Q. c #ECC817",
"!. c #F4CE12",
"~. c #F2CC14",
"^. c #F0CC1B",
"/. c #F2CE1B",
"(. c #FED613",
"). c #FBD416",
"_. c #FED614",
"`. c #FFD811",
"'. c #FFD912",
"]. c #FFD913",
"[. c #FAD419",
"{. c #FDD618",
"}. c #FED718",
"|. c #FDD71A",
" X c #FED71B",
".X c #FED81E",
"XX c #FFD91E",
"oX c #F5D120",
"OX c #F6D221",
"+X c #F9D626",
"@X c #FED920",
"#X c #FCD822",
"$X c #FCD823",
"%X c #FCD824",
"&X c #FDD926",
"*X c #FCD927",
"=X c #FFDB2A",
"-X c #FBD82C",
";X c #FBD82D",
":X c #FBD92E",
">X c #FBD932",
",X c #FCDA31",
"<X c #FDDB31",
"1X c #FEDB30",
"2X c #FDDB33",
"3X c #FAD935",
"4X c #FDDB34",
"5X c #FDDC34",
"6X c #FEDD35",
"7X c #FDDC37",
"8X c #FADA38",
"9X c #FADA3B",
"0X c #FEDD3B",
"qX c #FADA3E",
"wX c #FEDD3C",
"eX c #F9DA40",
"rX c #F9DB43",
"tX c #FBDC41",
"yX c #FBDD43",
"uX c #FCDD41",
"iX c #FDDD41",
"pX c #FDDE42",
"aX c #FDDE43",
"sX c #F9DB46",
"dX c #F9DB47",
"fX c #FCDD44",
"gX c #FCDD46",
"hX c #F8DB49",
"jX c #F8DB4B",
"kX c #FBDD48",
"lX c #FADD49",
"zX c #F8DC4C",
"xX c #F8DC4D",
"cX c #FADD4C",
"vX c #FBDE4D",
"bX c #F8DC4E",
"nX c #F8DC4F",
"mX c #FADD4F",
"MX c #F7DD55",
"NX c #F7DD56",
"BX c #F7DD57",
"VX c #F8DC50",
"CX c #F8DC51",
"ZX c #F8DD53",
"AX c #F9DD53",
"SX c #F8DC54",
"DX c #F8DD55",
"FX c #F8DD56",
"GX c #F8DD57",
"HX c #F7DD58",
"JX c #F7DD5A",
"KX c #F7DD5B",
"LX c #F7DD5C",
"PX c #F7DD5D",
"IX c None",
/* pixels */
"IXIXIXIXIXIXIXIXIXIXIXIXIXIXIXIXIXIXIXIXw x A D M u IXIXIXIXIXIX",
"IXIXIXIXIXIXIXIXIXIXIXIXIXIXIXIXIXIXy ~ 1.~.[.).j.7.[ c IXIXIXIX",
"IXIXIXIXIXIXIXIXIXIXIXIXIXIXIXIXIXb <.1XvXDXHXBXqXF.V.u.Y IXIXIX",
"IXIXIXIXIXIXIXIXIXIXIXIXIXIXIXIXj 0.iXKXKXJXKXeXJ.g.5.a.z.P IXIX",
"IXIXIXIXIXIXIXIXIXIXIXIXIXIXIXIXo.6XKXJXJXJXBX}.s.F 4 k 6.r.p IX",
"IXIXIXIXIXIXIXIXIXIXIXIXIXIXIXm !.ZXKXJXJXJXMX].*.& IXIX) A.R   ",
"IXIXIXIXIXIXIXIXIXIXIXIXIXIXIXQ =XKXJXJXJXJXHXXX,.8 IXIX .S.*.> ",
"IXIXIXIXIXIXIXIXIXIXIXIXIXIXIX| 0XLXJXJXJXJXKXsXL.%.K ` oX@X8.9 ",
"IXIXIXIXIXIXIXIXIXIXIXIXIXIXIX#.pXKXJXJXJXJXJXKXzX<X&X4XZX*Xt.t ",
"IXIXIXIXIXIXIXIXIXIXIXIXIXIXIX@.aXKXJXJXJXJXJXJXKXKXKXKXJX.Xr.e ",
"IXIXIXIXIXIXIXIXIXIXIXIXIXIXIX' wXLXJXJXJXJXJXJXJXJXJXKXVXR.;.1 ",
"IXIXIXIXIXIXIXIXIXIXIXIXIXIXIXT 2XKXJXJXJXJXJXJXJXJXJXKX3XC.( X ",
"IXIXIXIXIXIXIXIXIXIXIXIXIXIXIX! tXKXJXJXJXJXJXJXJXJXKXhXK.p.d   ",
"IXIXIXIXIXIXIXIXIXIXIXIXIXIXG ^.FXJXJXKXKXKXJXJXKXKXdX_.n./ + IX",
"IXIXIXIXIXIXIXIXIXIXIXIXIXB i.lXKXKXBXVXnXCXSXSXzX:XH.b.{ <   IX",
"IXIXIXIXIXIXIXIXIXIXIXIXv q.yXKXJXrX|.T.Y.R.`.`.I.n.e.U :   IXIX",
"IXIXIXIXIXIXIXIXIXIXIXh 3.fXKXLXbXP.h.O.&.;.:.=.{ H q .   IXIXIX",
"IXIXIXIXIXIXIXIXIXIXa 2.gXLXHXzX#Xb./ * % > , - O     IXIXIXIXIX",
"IXIXIXIXIXIXIXIXIXr -.uXJX9X XD.n.{ ;   IXIXIXIXIXIXIXIXIXIXIXIX",
"IXIXIXIXIXIXIXIX0 $.7XKXdXN.y.w.+.5   IXIXIXIXIXIXIXIXIXIXIXIXIX",
"IXIXIXIXIXIXIX6 } ,XJXPXeXM.^ 7 2   IXIXIXIXIXIXIXIXIXIXIXIXIXIX",
"IXIXIXIXIXIX3 _ -XGXxX9X{.B.L   IXIXIXIXIXIXIXIXIXIXIXIXIXIXIXIX",
"IXIXIXIXIXIXQ +XGX8XG.c.m.w.i   IXIXIXIXIXIXIXIXIXIXIXIXIXIXIXIX",
"IXIXIXIXIXI OXDXKX%Xx.W S g   IXIXIXIXIXIXIXIXIXIXIXIXIXIXIXIXIX",
"IXIXIXIXJ /.AXLXKX;Xv.n     IXIXIXIXIXIXIXIXIXIXIXIXIXIXIXIXIXIX",
"IXIXIXZ Q.mXjX>X$XH.g.z   IXIXIXIXIXIXIXIXIXIXIXIXIXIXIXIXIXIXIX",
"IXIXm W.cXSX(.k.f.l.E $ IXIXIXIXIXIXIXIXIXIXIXIXIXIXIXIXIXIXIXIX",
"IXl 4.kXPXnXY.O.f j =   IXIXIXIXIXIXIXIXIXIXIXIXIXIXIXIXIXIXIXIX",
"s >.5XNXCX-XZ.]     IXIXIXIXIXIXIXIXIXIXIXIXIXIXIXIXIXIXIXIXIXIX",
"j 9.U.'.E.C.d.C   IXIXIXIXIXIXIXIXIXIXIXIXIXIXIXIXIXIXIXIXIXIXIX",
"IXV ..X.X.X.N o IXIXIXIXIXIXIXIXIXIXIXIXIXIXIXIXIXIXIXIXIXIXIXIX",
"IXIX@ # # @   IXIXIXIXIXIXIXIXIXIXIXIXIXIXIXIXIXIXIXIXIXIXIXIXIX"
};
