/* XPM */
static char *result[] = {
/* columns rows colors chars-per-pixel */
"64 64 193 2 ",
"   c #090A04",
".  c #121200",
"X  c #181706",
"o  c #111411",
"O  c #3D0E00",
"+  c #252500",
"@  c #2B2A00",
"#  c #333300",
"$  c #3B3B00",
"%  c #323D32",
"&  c #2B2E21",
"*  c #4B1500",
"=  c #7F0400",
"-  c #7F0C00",
";  c #7F1400",
":  c #7F1B00",
">  c #7F2C00",
",  c #7F2700",
"<  c #7E3502",
"1  c #7F3A00",
"2  c #7B3B0C",
"3  c #7B3709",
"4  c #773D13",
"5  c #793F13",
"6  c #743F18",
"7  c #3D4A3D",
"8  c #394539",
"9  c #434300",
"0  c #4D4D00",
"q  c #515200",
"w  c #5C5C00",
"e  c #5F5600",
"r  c #7E4500",
"t  c #7F4C00",
"y  c #645F00",
"u  c #7F5500",
"i  c #7F5D00",
"p  c #73421D",
"a  c #794319",
"s  c #5E6000",
"d  c #626200",
"f  c #6B6C01",
"g  c #696500",
"h  c #746402",
"j  c #7F6400",
"k  c #766A02",
"l  c #7B6D01",
"z  c #757500",
"x  c #7C7401",
"c  c #7F7F00",
"v  c #757D0C",
"b  c #787F09",
"n  c #796A1C",
"m  c #6D7E19",
"M  c #6F7E17",
"N  c #717E13",
"B  c #6D4A2E",
"V  c #6C4528",
"C  c #724521",
"Z  c #794C21",
"A  c #734C2A",
"S  c #754921",
"D  c #684D36",
"F  c #755838",
"G  c #6E5439",
"H  c #5D7E33",
"J  c #547D3C",
"K  c #657E25",
"L  c #637F2A",
"P  c #717C2F",
"I  c #647B36",
"U  c #746625",
"Y  c #3D7B59",
"T  c #387D66",
"R  c #247A7B",
"E  c #287A74",
"W  c #307F7B",
"Q  c #2F7B6B",
"!  c #485748",
"~  c #665846",
"^  c #715D43",
"/  c #655E50",
"(  c #4E7F4B",
")  c #527E44",
"_  c #5A6D5A",
"`  c #546654",
"'  c #467E53",
"]  c #6F614A",
"[  c #73644A",
"{  c #786647",
"}  c #6B6C5C",
"|  c #666456",
" . c #736A52",
".. c #75735C",
"X. c #7A755A",
"o. c #63755F",
"O. c #5F7460",
"+. c #687564",
"@. c #7B7D65",
"#. c #787E69",
"$. c #802A00",
"%. c #813600",
"&. c #843B01",
"*. c #883F00",
"=. c #8A4300",
"-. c #8E4C02",
";. c #844409",
":. c #914D07",
">. c #8A5204",
",. c #915301",
"<. c #935C00",
"1. c #805B1F",
"2. c #905516",
"3. c #846904",
"4. c #946300",
"5. c #926B00",
"6. c #8D7400",
"7. c #827E00",
"8. c #8B7A01",
"9. c #807701",
"0. c #927201",
"q. c #937B0B",
"w. c #9F7209",
"e. c #937D13",
"r. c #957F19",
"t. c #906912",
"y. c #AA7716",
"u. c #876627",
"i. c #957F20",
"p. c #877D52",
"a. c #7F8000",
"s. c #5D813B",
"d. c #3F816A",
"f. c #2F807E",
"g. c #34827F",
"h. c #4B8158",
"j. c #528048",
"k. c #4B8566",
"l. c #6E856E",
"z. c #7E8B74",
"x. c #798D7B",
"c. c #738873",
"v. c #799279",
"b. c #779077",
"n. c #7B846E",
"m. c #808000",
"M. c #95811C",
"N. c #B48C1D",
"B. c #968223",
"V. c #99852C",
"C. c #998833",
"Z. c #BE8936",
"A. c #CAA135",
"S. c #9B8D42",
"D. c #9A924B",
"F. c #9B9042",
"G. c #9A995D",
"H. c #9A9655",
"J. c #898255",
"K. c #9A9D64",
"L. c #999F69",
"P. c #979F6E",
"I. c #83937B",
"U. c #899777",
"Y. c #848F6F",
"T. c #97A679",
"R. c #9AA16D",
"E. c #ECC761",
"W. c #247D87",
"Q. c #2D8185",
"!. c #2A8189",
"~. c #3A8682",
"^. c #4B9397",
"/. c #6BA397",
"(. c #7AA998",
"). c #809781",
"_. c #849C82",
"`. c #889D83",
"'. c #86A286",
"]. c #86A089",
"[. c #8AA58A",
"{. c #8DA98E",
"}. c #95AB85",
"|. c #98AA82",
" X c #96AE8B",
".X c #96B08D",
"XX c #8EAC91",
"oX c #90AE92",
"OX c #95B495",
"+X c #96B698",
"@X c #98B798",
"#X c #8FB297",
"$X c None",
/* pixels */
"$X$X$X$X$X$X$X$X$X$X$X$X$X$X$X$X$X$X$X$X$X$X$X$X$X$X$X$X$X$X$X$X$X$X$X%.%.$X$X$X$X$X$X$X$X$X$X$X$X$X$X$X$X$X$X$X$X$X$X$X$X$X$X$X",
"$X$X$X$X$X$X$X$X$X$X$X$X$X$X$X$X$X$X$X$X$X$X$X$X$X$X$X$X$X$X$X$X$X$X*.,.-.$X$X$X$X$X$X$X$X$X$X$X$X$X$X$X$X$X$X$X$X$X$X$X$X$X$X$X",
"$X$X$X$X$X$X$X$X$X$X$X$X$X$X$X$X$X$X$X$X$X$X$X$X$X$X$X$X$X$X$X$X&.2.y.q.4.$X$X$X$X$X$X$X$X$X$X$X$X$X$X$X$X$X$X$X$X$X$X$X$X$X$X$X",
"$X$X$X$X$X$X$X$X$X$X$X$X$X$X$X$X$X$X$X$X$X$X$X$X$X$X$X$X$X$X&.:.Z.E.A.m.0.=.$X$X$X$X$X$X$X$X$X$X$X$X$X$X$X$X$X$X$X$X$X$X$X$X$X$X",
"$X$X$X$X$X$X$X$X$X$X$X$X$X$X$X$X$X$X$X$X$X$X$X$X$X$X$X$X$X=.<.0.N.A.N.7.6.-.$X$X$X$X$X$X$X$X$X$X$X$X$X$X$X$X$X$X$X$X$X$X$X$X$X$X",
"$X$X$X$X$X$X$X$X$X$X$X$X$X$X$X$X$X$X$X$X$X$X$X$X$X$X$X&.,.5.7.c c 8.8.c 7.,.$X$X$X$X$X$X$X$X$X$X$X$X$X$X$X$X$X$X$X$X$X$X$X$X$X$X",
"$X$X$X$X$X$X$X$X$X$X$X$X$X$X$X$X$X$X$X$X$X$X$X$X$X$X=.4.8.a.c c c c c a.m.4.$X$X$X$X$X$X$X$X$X$X$X$X$X$X$X$X$X$X$X$X$X$X$X$X$X$X",
"$X$X$X$X$X$X$X$X$X$X$X$X$X$X$X$X$X$X$X$X$X$X$X$X&.,.0.7.c 7.c a.c c a.7.m.6.=.$X$X$X$X$X$X$X$X$X$X$X$X$X$X$X$X$X$X$X$X$X$X$X$X$X",
"$X$X$X$X$X$X$X$X$X$X$X$X$X$X$X$X$X$X$X$X$X$X$X=.4.8.c c a.c a.c c c c c c 7.,.$X$X$X$X$X$X$X$X$X$X$X$X$X$X$X$X$X$X$X$X$X$X$X$X$X",
"$X$X$X$X$X$X$X$X$X$X$X$X$X$X$X$X$X$X$X$X$X&.,.5.7.c a.a.c c c a.c c c a.c c 5.=.$X$X$X$X$X$X$X$X$X$X$X$X$X$X$X$X$X$X$X$X$X$X$X$X",
"$X$X$X$X$X$X$X$X$X$X$X$X$X$X$X$X$X$X$X$X=.<.8.c 7.c c 7.c a.c 7.c a.c a.c a.7.-.$X$X$X$X$X$X$X$X$X$X$X$X$X$X$X$X$X$X$X$X$X$X$X$X",
"$X$X$X$X$X$X$X$X$X$X$X$X$X$X$X$X$X$X&.,.5.7.m.7.c c a.c c c c a.c c c c c c 7.5.=.$X$X$X$X$X$X$X$X$X$X$X$X$X$X$X$X$X$X$X$X$X$X$X",
"$X$X$X$X$X$X$X$X$X$X$X$X$X$X$X$X$X=.<.6.7.c c c c c c a.c c m.c c a.c a.c 7.c 8.,.$X$X$X$X$X$X$X$X$X$X$X$X$X$X$X$X$X$X$X$X$X$X$X",
"$X$X$X$X$X$X$X$X$X$X$X$X$X$X$X&.,.5.7.7.a.c m.c c a.c c c a.c c c c c c a.N N K U &.$X$X$X$X$X$X$X$X$X$X$X$X$X$X$X$X$X$X$X$X$X$X",
"$X$X$X$X$X$X$X$X$X$X$X$X$X$X~ u.0.7.c a.c a.c a.c c 7.a.c c c a.c a.K Y W.R E Q I ,.$X$X$X$X$X$X$X$X$X$X$X$X$X$X$X$X$X$X$X$X$X$X",
"$X$X$X$X$X$X$X$X$X$X$X$XV / x.}.C.7.c c c c c c a.c a.c c a.c c a.) W.Y L m N c 7.5.*.$X$X$X$X$X$X$X$X$X$X$X$X$X$X$X$X$X$X$X$X$X",
"$X$X$X$X$X$X$X$X$X$X$X~ +.[.OX+X}.V.7.c c c c c c c c c c c c c N Q.s.7.m.7.c c c 8.,.$X$X$X$X$X$X$X$X$X$X$X$X$X$X$X$X$X$X$X$X$X",
"$X$X$X$X$X$X$X$X$XD } _.oX+XOXOX+XL.8.c c 7.c c c c c c c c c 7.L W.c m.c c a.a.c 7.5.=.$X$X$X$X$X$X$X$X$X$X$X$X$X$X$X$X$X$X$X$X",
"$X$X$X$X$X$X$XD | v.{.+X+XOXOXOXOX|.e.c c a.c x c x x z x x a.7.a.!.s.7.c a.c 7.a.c 7.,.$X$X$X$X$X$X$X$X$X$X$X$X$X$X$X$X$X$X$X$X",
"$X$X$X$X$XV ~ c.[.+XOXOXOXOXOXOXOXK.8.c a.c x x k k k k h k z x x h.g.N 7.c a.c c c 7.6.=.$X$X$X$X$X$X$X$X$X$X$X$X$X$X$X$X$X$X$X",
"$X$X$X$XD +._.+X+XOXOXOXOXOXOXOXOXC.7.a.c x c z k h h k h h h k x M ~.h.b m.7.c a.c a.7.<.$X$X$X$X$X$X$X$X$X$X$X$X$X$X$X$X$X$X$X",
"$X$X$X/ x.OX+X+XOXOXOXOXOX+X+XOX.Xn d x c c x x x k x k h k x x c c L W.J a.a.c c c c 7.8.-.$X$X$X$X$X$X$X$X$X$X$X$X$X$X$X$X$X$X",
"$XD } _.OXOXOX+X+XOXOXOXOXz.b.+X X&   9 m.c a.a.c c c c c x c c c a.m.) R a.a.7.a.c c a.c 5.=.$X$X$X$X$X$X$X$X$X$X$X$X$X$X$X$X$X",
"V } XXOXOXOXOX_.b.oXOXOX_   7 OX.Xu.0 w m.c a.a.c c c c c c c c c c c 7.Q j.7.c c m.c c c 8.<.$X$X$X$X$X$X$X$X$X$X$X$X$X$X$X$X$X",
"5  .XXOXOXOX@X_   7 OX@X_ ! `.OXT.M.m.m.a.c c c c c c c c c c c c 7.7.m f.) 7.c x f z a.a.a.6.-.$X$X$X$X$X$X$X$X$X$X$X$X$X$X$X$X",
"$X2  .oXOXOXOX[.` !  X+XOXOX+X+XR.m.m.m.z # w c c c c a.c c 7.a.7.N ) W.T b c m.w   + z m.a.7.5.=.$X$X$X$X$X$X$X$X$X$X$X$X$X$X$X",
"$X$X6 #.+X+XOXOX+XOXOXOXOXOXOXOXC.7.m.m.c + + a.a.c c c c m ( T Q R R ) f @ d m.z 0 $ z m.a.c 7.<.$X$X$X$X$X$X$X$X$X$X$X$X$X$X$X",
"$X$X$XA I.OXOXOXOXOXOXOXOXOXOXG.8.a.m.m.a.w $ x c c c a.L !.W ' J K a.c # . f a.m.m.m.c m.m.7.a.8.,.$X$X$X$X$X$X$X$X$X$X$X$X$X$X",
"$X$X$X$X[ OXOXOXOXOXOXOXOXOX}.r.7.7.c m.c c c c c a.c m W.( b 7.c c c c q w a.c c a.c c d z a.c 7.5.-.$X$X$X$X$X$X$X$X$X$X$X$X$X",
"$X$X$X$XC I.+XOXOXOXOXOXOXOXK.8.c a.c c c c a.a.c c c k.d.c a.c a.c a.a.a.m.c c c a.m.z X q a.c c 7.5.=.$X$X$X$X$X$X$X$X$X$X$X$X",
"$X$X$X$X$X .oXOXOXOXOXOXOXOXD.7.a.c a.a.c a.f z c c s.^.s.m.c c c c x c c c a.c c c c c + $ a.a.i >.7.4.=.$X$X$X$X$X$X$X$X$X$X$X",
"$X$X$X$X$XA ).+XOXOXOXOXOXOXD.7.c c c c a.x + 0 a.a.s./.k.a.7.a.a.c 9 9 m.m.c c c c c m.s w a.c > $.m.7.4.=.$X$X$X$X$X$X$X$X$X$X",
"$X$X$X$X$X$X@.OXOXOXOXOXOX+XH.7.c a.c a.c z . q m.7.I (./.P 7.a.m.z . 9 m.a.c c c a.c c a.m.a.a.< : c c 7.5.-.$X$X$X$X$X$X$X$X$X",
"$X$X$X$X$X$XG {.OXOXOXOXOX+XK.8.a.7.c c c c 9 f 7.M.U.#XOXT.V.8.c z # g a.a.a.c c c 7.a.c c a.a.r ; x c c 7.5.<.$X$X$X$X$X$X$X$X",
"$X$X$X$X$X$XC v.+XOXOXOXOXOXT.e.c c a.c c c a.7.r.T.OXOXOXOX.XF.8.a.c c a.7.c c c a.c c m.d $ a.u - 3.c 7.a.m.8.5.,.$X$X$X$X$X$X",
"$X$X$X$X$X$X$X#.OXOXOXOXOXOX+XC.7.c c c a.m.a.8.H.+XOXOXOXOXOXOXS.8.c c c c c a.c c c 7.m.s   q l = u c x 9.9.l 6.5.4.$X$X$X$X$X",
"$X$X$X$X$X$X$X..OXOXOXOXOXOXOXR.q.c c c c q f M.}.+XOXOXOXOXOXOX}.n z a.a.c a.c c a.c c t r O * $.$.; $.- ; ; ; r 7.7.5.<.$X$X$X",
"$X$X$X$X$X$X$X .oXOXOXOXOXOXOXOXD.8.c a.f . e F.+X+XOXOXOXOXOXOXb.X g a.c c c c c c c t - - ; ; $.$.; , $.< 1 r x m.m.c 8.<.%.$X",
"$X$X$X$X$X$X$X] XXOXOXOXOXOXOXOX XB.7.m.y . j R.OXOXOXOXOXOXOX@XO.o 3.a.c c a.c c a.7.l l l x 9.t $.$.7.c a.a.a.m.a.c a.7.w.:.%.",
"$X$X$X$X$X$X$X^ {.OXOXOXOXOXOXOX@XL.8.c z d B. XOXOXOXOXOXOXOXOXv.o.C.7.c m.c c c a.7.m.m.m.a.a.l $.$.x 7.a.c a.a.a.c 8.5.:.*.$X",
"$X$X$X$X$X$X$XG [.+XOXOXOXOXOXOXOXOXC.8.8.e.L.OXOXOXOXOXOXOXOXOX+X+XG.8.c c c c c c c c c c c c c $.$.9.c a.c c c 7.0.,.&.%.$X$X",
"$X$X$X$X$X$X$XB _.+XOXOXOXOXOXOXOXOX XD.S.P.OX+XOXOXOXOXOXOXOX#XOXOX|.q.c c c c c c 7.c a.c a.c c < $.x a.c c 7.6.4.=.%.$X$X$X$X",
"$X$X$X$X$X$X$Xp z.+XOXOXOXOXOXOXOXOXOXOXXX7 l.OXOXOXOXoXOX+X'.8 l.+X.XB.c c a.c c c a.c a.c c c 7.i = j a.c 8.5.-.&.$X$X$X$X$X$X",
"$X$X$X$X$X$X$X$X .OXOXOXOXOXOXOXOXOXOXOXOX% & [.OXOXOX#XOX.X8 o b.+XOXB.c c c a.a.c a.c 7.c a.a.a.j ; j m.0.<.&.%.$X$X$X$X$X$X$X",
"$X$X$X$X$X$X$X$XG [.OXOXOXOXOXOXOXOXOXOXOXb.7 ].@X'.+.l.OXOXo.l.OX+X.XM.c x x k x c a.a.c c c c a.x u 8.4.=.&.$X$X$X$X$X$X$X$X$X",
"$X$X$X$X$X$X$X$Xp n.+XOXOXOXOXOXOXOXOXOX+XOXOX+X@X!   8  XOXOX@XOXOX.XB.6.9.x h k k x c a.c m.7.a.8.4.,.&.$X$X$X$X$X$X$X$X$X$X$X",
"$X$X$X$X$X$X$X$X$X^ XXOX.XOXOXOXOXOXOXOXOXOXOXOXOXI.c.].OXOXOXoXOXOXOXH.w.0.c z k c x x c c c m.0.<.=.< $X$X$X$X$X$X$X$X$X$X$X$X",
"$X$X$X$X$X$X$X$X$Xp z.OXOXOXOXOXOXOXOXOXOXOXOXOXOX+X+XOXOXOXOXOXOXOXOX.Xp.>.5.8.7.7.7.c c a.8.4.-.&.$X$X$X$X$X$X$X$X$X$X$X$X$X$X",
"$X$X$X$X$X$X$X$X$X$X[ oXOXOXOXOXOXOXOXOXOXOXOXOXOXOXOXOXOXOXOXOXOXOXOX@X).C ;.>.,.<.4.5.8.5.,.&.< $X$X$X$X$X$X$X$X$X$X$X$X$X$X$X",
"$X$X$X$X$X$X$X$X$X$Xp z.+XOXOXOXOXOXOXoXOXOXOXOXOXOXOXOXOXOXOXOXOXOXOXOXoX} C 3 1 &.&.=.,.:.%.$X$X$X$X$X$X$X$X$X$X$X$X$X$X$X$X$X",
"$X$X$X$X$X$X$X$X$X$X$X^ {.OXOXOXOXOXOXOXOXOXOXOXOXOXOXOXOXOXOXOXOXOXOXOX+XU.u.1.Z $X$X$X$X$X$X$X$X$X$X$X$X$X$X$X$X$X$X$X$X$X$X$X",
"$X$X$X$X$X$X$X$X$X$X$X4 @.OXOXOXOXOXOXOXOXOXOXOXOXOXOXOXOXOXOXOXOXOXOXOX@XT.q.8.t.S $X$X$X$X$X$X$X$X$X$X$X$X$X$X$X$X$X$X$X$X$X$X",
"$X$X$X$X$X$X$X$X$X$X$X$XA ).+XOXOXOXOXOXOXOXOXOXOXOXOXOXOXOXOXOXOXOXOXOX+XK.0.t.-.2 $X$X$X$X$X$X$X$X$X$X$X$X$X$X$X$X$X$X$X$X$X$X",
"$X$X$X$X$X$X$X$X$X$X$X$X$X[  X+XOXOXOXOXOXOXOXOXOXOXOXOXOXOXOXOXOXOXOXOXOXp.;.&.$X$X$X$X$X$X$X$X$X$X$X$X$X$X$X$X$X$X$X$X$X$X$X$X",
"$X$X$X$X$X$X$X$X$X$X$X$X$X4 ..OXOXOXOXOXOXOXOXOXOXOXOXOXOXOX.XOXOX+XoXY.F a $X$X$X$X$X$X$X$X$X$X$X$X$X$X$X$X$X$X$X$X$X$X$X$X$X$X",
"$X$X$X$X$X$X$X$X$X$X$X$X$X$X6 ..{.OXOXOXOXOXOXOXOXOXOXOXOXOXOXOXOXU.{ a $X$X$X$X$X$X$X$X$X$X$X$X$X$X$X$X$X$X$X$X$X$X$X$X$X$X$X$X",
"$X$X$X$X$X$X$X$X$X$X$X$X$X$X$X2 F Y.#X+XOXOXOXOXOXOXOXOXOXOXOX`. .a $X$X$X$X$X$X$X$X$X$X$X$X$X$X$X$X$X$X$X$X$X$X$X$X$X$X$X$X$X$X",
"$X$X$X$X$X$X$X$X$X$X$X$X$X$X$X$X$X5 ^ `.OXOXOXOXOXOXOX@XOX[.X.Z %.$X$X$X$X$X$X$X$X$X$X$X$X$X$X$X$X$X$X$X$X$X$X$X$X$X$X$X$X$X$X$X",
"$X$X$X$X$X$X$X$X$X$X$X$X$X$X$X$X$X$X$XA I.+XoXOXOXOXoX[.p.A 3 $X$X$X$X$X$X$X$X$X$X$X$X$X$X$X$X$X$X$X$X$X$X$X$X$X$X$X$X$X$X$X$X$X",
"$X$X$X$X$X$X$X$X$X$X$X$X$X$X$X$X$X$X$X$X^ {.+XOX@X{.Y.F 5 $X$X$X$X$X$X$X$X$X$X$X$X$X$X$X$X$X$X$X$X$X$X$X$X$X$X$X$X$X$X$X$X$X$X$X",
"$X$X$X$X$X$X$X$X$X$X$X$X$X$X$X$X$X$X$X$XB `.+XoXY.F &.$X$X$X$X$X$X$X$X$X$X$X$X$X$X$X$X$X$X$X$X$X$X$X$X$X$X$X$X$X$X$X$X$X$X$X$X$X",
"$X$X$X$X$X$X$X$X$X$X$X$X$X$X$X$X$X$X$X$XB _.I.{ 5 $X$X$X$X$X$X$X$X$X$X$X$X$X$X$X$X$X$X$X$X$X$X$X$X$X$X$X$X$X$X$X$X$X$X$X$X$X$X$X",
"$X$X$X$X$X$X$X$X$X$X$X$X$X$X$X$X$X$X$X$XB ^ S $X$X$X$X$X$X$X$X$X$X$X$X$X$X$X$X$X$X$X$X$X$X$X$X$X$X$X$X$X$X$X$X$X$X$X$X$X$X$X$X$X",
"$X$X$X$X$X$X$X$X$X$X$X$X$X$X$X$X$X$X$X$X5 %.$X$X$X$X$X$X$X$X$X$X$X$X$X$X$X$X$X$X$X$X$X$X$X$X$X$X$X$X$X$X$X$X$X$X$X$X$X$X$X$X$X$X"
};
