/* XPM */
static char *result[] = {
/* columns rows colors chars-per-pixel */
"64 64 146 2 ",
"   c #23211E",
".  c #342514",
"X  c #3B2A16",
"o  c #35322E",
"O  c #3C362E",
"+  c #3A3731",
"@  c #3E3B36",
"#  c #3E3C38",
"$  c #45311C",
"%  c #4A351F",
"&  c #5D3F1E",
"*  c #4F3A22",
"=  c #453B2F",
"-  c #4B3E2E",
";  c #553C22",
":  c #583F24",
">  c #423D35",
",  c #4A3F30",
"<  c #403D38",
"1  c #5E4215",
"2  c #5F4419",
"3  c #604416",
"4  c #61461B",
"5  c #64491E",
"6  c #4D402F",
"7  c #5B4125",
"8  c #53402C",
"9  c #5D452A",
"0  c #4D4030",
"q  c #44403A",
"w  c #494238",
"e  c #5F513E",
"r  c #624625",
"t  c #644A24",
"y  c #6A4E24",
"u  c #614629",
"i  c #654C2A",
"p  c #694F2C",
"a  c #6C5027",
"s  c #66512E",
"d  c #6C512D",
"f  c #72562E",
"g  c #644D32",
"h  c #675231",
"j  c #6C5333",
"k  c #695539",
"l  c #6A583B",
"z  c #725633",
"x  c #755934",
"c  c #785C37",
"v  c #735B3E",
"b  c #795D39",
"n  c #7C6039",
"m  c #494641",
"M  c #4B4844",
"N  c #534E46",
"B  c #514E49",
"V  c #55524C",
"C  c #59554F",
"Z  c #5A5753",
"A  c #5E5B57",
"S  c #5F5D59",
"D  c #6D5E44",
"F  c #705C45",
"G  c #635D53",
"H  c #6F6049",
"J  c #796144",
"K  c #71624D",
"L  c #7F674A",
"P  c #64625E",
"I  c #69655C",
"U  c #716654",
"Y  c #7A6750",
"T  c #736957",
"R  c #746B5B",
"E  c #666460",
"W  c #696763",
"Q  c #6D6B67",
"!  c #766E62",
"~  c #706E6A",
"^  c #767065",
"/  c #7A7265",
"(  c #73716D",
")  c #797369",
"_  c #767471",
"`  c #7A7875",
"'  c #7F7D7A",
"]  c #806A4F",
"[  c #88704F",
"{  c #856F54",
"}  c #8C7657",
"|  c #84735C",
" . c #8B775B",
".. c #8D7C65",
"X. c #83796B",
"o. c #8C7C68",
"O. c #817F7C",
"+. c #928067",
"@. c #91826C",
"#. c #8C8272",
"$. c #8C8679",
"%. c #8F897B",
"&. c #948572",
"*. c #9B8B75",
"=. c #918B7E",
"-. c #9A8D79",
";. c #9E917D",
":. c #8B8986",
">. c #918F8C",
",. c #9D9180",
"<. c #979592",
"1. c #989592",
"2. c #9B9A97",
"3. c #9E9D9A",
"4. c #A29684",
"5. c #A49887",
"6. c #A89B87",
"7. c #A49989",
"8. c #A99E8C",
"9. c #A69F90",
"0. c #ABA18F",
"q. c #ADA392",
"w. c #A3A29F",
"e. c #AAA59F",
"r. c #B0A695",
"t. c #B2A896",
"y. c #B5AD9C",
"u. c #B8AF9F",
"i. c #B8B09F",
"p. c #A4A3A0",
"a. c #A9A7A3",
"s. c #AAA9A7",
"d. c #ADACAA",
"f. c #B9B1A1",
"g. c #B5B4B2",
"h. c #B9B6B2",
"j. c #BFBEBD",
"k. c #C1B9A9",
"l. c #C0BCB8",
"z. c #C3C1BF",
"x. c #C5C5C3",
"c. c #D9D8D6",
"v. c #DDDCDC",
"b. c #E5E4E4",
"n. c #FCFCFC",
"m. c None",
/* pixels */
"m.m.m.m.m.m.m.m.m.m.m.m.m.m.m.m.m.m.m.m.m.m.m.m.m.m.m.m.m.m.m.m.m.m.m.m.m.m.m.m.m.m.m.m.m.m.m.m.m.m.m.m.m.m.m.m.m.m.m.m.m.m.m.m.",
"m.m.m.m.m.m.m.m.m.m.m.m.m.m.m.m.m.m.m.m.m.m.m.m.m.m.m.m.m.0 m.m.m.m.m.m.m.m.m.m.m.m.m.m.m.m.m.m.m.m.m.m.m.m.m.m.m.m.m.m.m.m.m.m.",
"m.m.m.m.m.m.m.m.m.m.m.m.m.m.m.m.m.m.m.m.m.m.m.m.m.# # # # 0 m.m.m.m.m.m.m.m.m.m.m.m.m.m.m.m.m.m.m.m.m.m.m.m.m.m.m.m.m.m.m.m.m.m.",
"m.m.m.m.m.m.m.m.m.m.m.m.m.m.m.m.m.m.m.m.m.m.m.m.> > # # < 8 m.m.m.m.m.m.m.m.m.m.m.m.m.m.m.m.m.m.m.m.m.m.m.m.m.m.m.m.m.m.m.m.m.m.",
"m.m.m.m.m.m.m.m.m.m.m.m.m.m.m.m.m.m.m.m.m.m.m.m.m.m.m.m.m.m.m.m.m.m.m.m.m.m.m.m.m.m.m.m.m.m.m.m.m.m.m.m.m.m.m.m.m.m.m.m.m.m.m.m.",
"m.m.m.m.m.m.m.m.m.m.m.m.m.m.m.m.m.m.m.m.m.m.m.m.m.m.m.m.m.m.m.m.m.m.m.m.m.m.m.m.m.m.m.m.m.m.m.m.m.m.m.m.m.m.m.m.m.m.m.m.m.m.m.m.",
"m.m.m.m.m.m.m.m.m.m.m.m.m.m.m.m.m.m.m.m.m.m.m.m.m.m.m.m.r.t.t.f.f.m.m.m.m.m.m.m.m.m.m.m.m.m.m.m.m.m.m.m.m.m.m.m.m.m.m.m.m.m.m.m.",
"m.m.m.m.m.m.m.m.m.m.m.m.m.m.m.m.m.m.m.m.m.m.m.m.m.m.m.m.r.q.i.f.f.f.y.m.m.m.m.m.m.m.m.m.m.m.m.m.m.m.m.m.m.m.m.m.m.m.m.m.m.m.m.m.",
"m.m.m.m.m.m.m.m.m.m.m.m.m.m.m.m.m.m.m.m.m.m.m.m.m.m.m.m.m.y.0.u.f.f.f.m.m.m.m.m.m.m.m.m.m.m.m.m.m.m.m.m.m.m.m.m.m.m.m.m.m.m.m.m.",
"m.m.m.m.m.m.m.m.m.m.m.m.m.m.m.m.m.m.m.m.m.m.m.m.m.m.m.m.m.f.y.0.u.i.=.B > m.m.6 m.m.m.m.m.m.m.m.m.m.m.m.m.m.m.m.m.m.m.m.m.m.m.m.",
"m.m.m.m.m.m.m.m.m.m.m.m.m.m.m.m.m.m.m.m.m.m.m.m.m.m.m.m.m.f.f.u.q.X.< # # # # , m.m.m.m.m.m.m.m.m.m.m.m.m.m.m.m.m.m.m.m.m.m.m.m.",
"m.m.m.m.m.m.m.m.m.m.m.m.m.m.m.m.m.m.m.m.m.m.m.m.m.m.m.m.m.f.f.f.y.X.G # # # + : m.m.m.m.m.m.m.m.m.m.m.m.m.m.m.m.m.m.m.m.m.m.m.m.",
"m.m.m.m.m.m.m.m.m.m.m.m.m.m.m.m.m.m.m.m.m.m.m.m.m.m.m.m.f.u.u.f.f.i.8.m.q I =.*.8.m.m.m.m.m.m.m.m.m.m.m.m.m.m.m.m.m.m.m.m.m.m.m.",
"m.m.m.m.m.m.m.m.m.m.m.m.m.m.m.m.m.m.m.m.m.m.m.m.m.m.m.m.m.J m.m.m.m.m.m.m.f.f.f.f.f.f.m.m.m.m.m.m.m.m.m.m.m.m.m.m.m.m.m.m.m.m.m.",
"m.m.m.m.m.m.m.m.m.m.m.m.m.m.m.m.m.m.m.m.m.m.m.> > # # + O = > m.m.m.m.m.m.m.f.f.f.f.f.m.m.m.m.m.m.m.m.m.m.m.m.m.m.m.m.m.m.m.m.m.",
"m.m.m.m.m.m.m.m.m.m.m.m.m.m.m.m.m.m.m.m.m.m.m.# # # < _ >.B @ # # # m.m.m.m.t.f.i.f.f.m.m.m.m.m.m.m.m.m.m.m.m.m.m.m.m.m.m.m.m.m.",
"m.m.m.m.m.m.m.m.m.m.m.m.m.m.m.m.m.m.m.m.m.m.m.# # + E v.n.l.m # @ # m.m.m.m.r.r.f.f.f.m.m.m.m.m.m.m.m.m.m.m.m.m.m.m.m.m.m.m.m.m.",
"m.m.m.m.m.m.m.m.m.m.m.m.m.m.m.m.m.m.m.m.m.m.m.< # + :.s.x.h.Q # @ # # m.m.m.f.r.r.f.f.m.m.m.m.m.m.m.m.m.m.m.m.m.m.m.m.m.m.m.m.m.",
"m.m.m.m.m.m.m.m.m.m.m.m.m.m.m.m.t m.m.m.m.m.m.< # + 2.v.v.v.S + @ > > m.m.y.f. .m.m.m.m.m.m.m.m.m.m.m.m.m.m.m.m.m.m.m.m.m.m.m.m.",
"m.m.m.m.m.m.m.m.m.m.m.m.m.m.m.m.r m.m.m.m.m.m.< _ E $.c.c.g.q N ! N # > m.m.m.r m.m.m.m.m.m.m.m.m.m.m.m.m.m.m.m.m.m.m.m.m.m.m.m.",
"m.m.m.m.m.m.m.m.m.m.m.> # # # , u m.m.m.m.m.# @ V a.e.h.l.a.1.p.~ < # # m.m.m...6.k.y.8.m.m.m.m.m.m.m.m.m.m.m.m.m.m.m.m.m.m.m.m.",
"m.m.m.m.m.m.m.m.m.m.< # # > < , r m.m.m.m.m.N > @ Z z.n.n.j.( m + # # # m.m.f.f.f.f.f.y.r.y.y.m.m.m.m.m.m.m.m.m.m.m.m.m.m.m.m.m.",
"m.m.m.m.m.m.m.m.u m.m.m.m.m.m.m.r m.m.m.m.< <.a.p.h.d.:.w.h.` m W A + # m.m.t.f.f.i.i.f.y.r.y.m.m.m.m.m.m.m.m.m.m.m.m.m.m.m.m.m.",
"m.m.m.m.# # m.> 7 m.m.m.m.m.m.L J m.m.m.o V l.b.s.V # + # A 3.x.b._ O # m.m.m.i.i.f.f.i.y.y.r.t.m.m.m.m.m.m.m.m.m.m.m.m.m.m.m.m.",
"m.m.m.> < # > > 7 m.m.r.t.i.f.i.y.f.f.^ # m P Z Q < # # @ @ # w.h.g.' q m.m.f.f.f.f.i.i.f.f.i.q.m.m.m.m.m.m.m.m.m.m.m.m.m.m.m.m.",
"m.m.m.m.m.w > m.u m.m.f.i.f.f.f.i.y.=.G w m.m.m.m.m.m.m.  - O > # V B m.m.m.f.f.i.f.f.f.f.i.y.h.m.m.m.m.m.m.m.m.m.m.m.m.m.m.m.m.",
"m.m.m.m.m.m.m.m.r m.m.m.i.i.i.i.q.q.q.y.m.m.m.m.m.m.m.m.m.: . m.+ > m.m.m.m.f.f.i.i.i.i.i.i.f.f.m.m.m.m.m.m.m.m.m.m.m.m.m.m.m.m.",
"m.f.f.f.f.f.f.i.*.r.m.m.i.i.y.q.t.i.f.i.m.m.m.m.m.m.m.m.m.r X m.m.m.m.m.m.m.f.f.i.i.i.i.f.f.f.m.m.m.m.m.m.m.m.m.m.m.m.m.m.m.m.m.",
"m.f.f.f.f.f.i.i.f.f.i.f.u.q.q.u.f.i.f.f.m.m.m.m.m.m.m.m.m.u m.m.m.m.m.m.m.f.f.f.f.i.f.f.f.f.f.m.m.m.m.m.m.m.m.m.m.m.m.m.m.m.m.m.",
"m.f.f.f.f.f.i.i.f.f.u.y.q.y.f.f.f.f.f.y.y.m.m.m.m.m.m.m.m.r m.m.m.m.m.m.m.f.f.f.f.f.f.i.f.f.f.m.m.m.m.m.m.m.m.m.m.m.# > m.m.m.m.",
"m.m.f.f.f.f.f.i.f.u.q.q.y.i.i.q.7.y.r.y.y.m.m.m.m.m.m.m.m.r X m.m.m.m.m.f.f.f.f.f.f.f.f.f.u.y.m.m.m.m.m.m.m.m.m.m.# # @ < m.m.t ",
"m.m.f.f.f.f.f.u.r.q.y.u.i.i.f.@.m.m.m.m.m.m.m.m.m.m.m.m.m.u m.m.m.m.m.i.k.y.r.5.r.f.k.f.k.f.m.m.m.m.m.m.m.m.8.4.m.m.# # # , 9 m.",
"m.m.f.i.f.y.y.q.e.i.i.f.f.f.f.-.{ m.m.m.m.m.m.m.m.m.m.m.m.r m.m.m.m.m.m.m.m.m.J m.m.m.m.m.m.m.m.m.m.m.m.m.m.7.7.7.m.m.m.> 7 m.m.",
"m.m.f.f.u.q.q.u.i.i.f.f.f.f.f.i.f.f.f.u.f.h.m.m.m.m.m.m.m.r $ m.m.m.m.f.f.f.f.u.u.f.f.i.f.f.m.m.m.m.m.m.m.7.7.7.7.7.m.m.r m.m.m.",
"m.m.f.t.q.y.f.f.i.i.f.i.f.i.f.f.f.i.i.i.i.f.f.f.m.m.m.m.m.t m.m.o.y.f.i.i.i.f.i.f.f.f.u.f.i.f.m.m.m.m.m.7.7.5.7.7.7.5.j u m.m.m.",
"m.u.q.q.u.u.f.f.i.i.f.i.f.f.i.f.i.i.i.f.i.f.i.f.f.m.m.m.m.i m.m.m.m.f.f.f.i.i.i.u.f.f.f.i.i.f.m.m.m.m.4.7.7.7.7.7.7.7.&.m.m.m.m.",
"m.r.u.i.f.f.f.f.i.i.f.f.i.i.i.f.i.i.i.f.f.i.f.f.i.=.m.m.m.t m.m.m.m.*.y.f.i.i.i.u.f.f.f.f.f.f.m.m.m.m.7.7.5.7.7.7.7.7.7.m.m.m.m.",
"m.m.m.f.f.f.f.f.i.i.f.i.i.i.i.i.i.i.i.f.f.i.f.i.y.=.m.m.m.r m.m.m.m.m.r.y.i.f.f.u.f.f.u.f.f.f.m.m.m.7.7.7.7.7.7.7.7.7.7.m.m.m.m.",
"m.m.m.m.m.m.m.m.{ -.m.m.k.f.f.f.f.i.f.f.i.f.f.f.e.%.T m.m.r m.m.m.m.m.f.q.r.i.i.f.f.f.f.f.f.f.m.m.9.8.7.7.7.7.7.5.7.7.5.8.m.m.m.",
"m.m.m.m.m.m.m.m.r p m.m.{ i.i.f.f.f.f.i.i.i.i.f.q.$.k m.m.u m.m.m.m.m.f.i.e.q.y.f.f.f.f.f.f.u.r.7.7.5.5.7.7.7.5.7.7.5.8.7.m.m.m.",
"m.m.m.m.m.b b x r p j p  .i.f.f.i.f.f.f.i.i.f.f.9./ p 7 j i p m.m.m.m.f.f.f.y.9.y.f.f.f.u.y.9.7.7.5.7.7.5.7.7.7.7.7.7.7.m.m.m.m.",
"m.m.m.m.m.f b z r : ; g 8.f.f.f.f.i.i.i.f.f.f.f.#.9 9 9 j i z b b c *.f.f.f.u.y.8.8.q.9.8.7.7.7.7.7.7.7.7.7.7.5.5.7.7.7.m.m.m.m.",
"m.m.m.m.m.4 x c z 9 9 ..5.4.4.4.9.y.f.i.f.f.u.&.- $ * $ ; 7 r u u j 8.i.f.f.f.f.u.r.8.7.5.7.7.7.7.7.7.7.7.7.5.5.7.7.7.m.m.m.m.m.",
"m.m.m.m.m.1 4 f b c j g 7 7 : 9 g F o.8.t.5.Y : $ $ * $ ; 7 ; ; ; J y.i.f.f.f.f.u.u.u.r.9.5.7.8.7.7.7.7.7.7.8.8.7.9.m.m.m.m.m.m.",
"m.m.m.m.m.1 1 3 y x b c z j i : ; ; ; 9 D : ; ; $ $ * $ ; 7 7 ; g 5.f.f.f.f.f.f.f.f.k.f.,.F F | o.,.,.,.4.;.*.o. .m.m.m.m.m.m.m.",
"m.m.m.m.m.1 1 1 1 4 y x b b b c z j i u ; ; ; * $ % $ $ ; 7 ; ; Y ,.7.8.r.9.9.9.5.,.o.| 9 * ; ; : 9 9 D F b b b b b b b m.m.m.m.",
"m.m.m.m.m.1 1 1 5 r 1 3 4 f x c b b b b c z z g 9 7 7 * 7 7 7 ; ; : 9 9 u u 9 : : : ; ; ; ; ; ; ; ; ; * ; 7 z b b b b b n m.m.m.",
"m.m.m.m.m.4 1 4 F ! j 1 & 1 3 4 y f z x b b b b b b c x x z z j j p g i i i u u u 9 9 9 7 u u u r i g g z x b b b b b b m.m.m.m.",
"m.m.m.m.m.y 4 1 U ^ k s T l 1 1 1 1 1 3 5 a a f f x x x c c c c n n n n n n x n c c n c c c c c b c c c c c f f c b b m.m.m.m.m.",
"m.m.m.m.m.p i 5 i l 5 D ) K i U D 1 9 t 1 1 1 1 1 1 3 4 5 5 5 y 5 5 y y t a y y a y y 5 y y 5 3 t 5 4 4 3 3 3 3 m.m.m.m.m.m.m.m.",
"m.m.m.m.m.m.p d t 4 1 t H s h ) T s ! T 2 h l 2 2 t 1 1 2 1 1 1 1 1 1 1 1 1 1 1 1 1 1 1 1 1 & 1 1 1 3 1 & 1 3 3 m.m.m.m.m.m.m.m.",
"m.m.m.m.m.m.p d p p t 4 2 1 t H k i ! R s R ) s H ! h h T h 2 l t 1 s 9 1 i s 1 7 t 1 1 1 1 1 1 1 1 1 1 3 3 3 m.m.m.m.m.m.m.m.m.",
"m.m.m.m.m.m.t t p p p p d t 5 2 2 2 h p 2 K T i U ) l H ) H l / K s ! U i R R h T R 5 1 1 1 1 1 1 1 1 1 1 1 m.m.m.m.m.m.m.m.m.m.",
"m.m.m.m.m.m.1 3 5 t i p s p d i t t 5 3 2 2 t 1 s l 2 s H s s ! H s ! T s R R h R ! t 1 1 1 1 1 1 1 1 1 1 3 m.m.m.m.m.m.m.m.m.m.",
"m.m.m.m.m.m.m.1 1 1 4 5 t i p p d d p p s i t t 5 2 4 1 4 1 1 s 2 1 s t 1 s s 1 h h 1 1 & 1 1 1 1 1 1 1 1 m.m.m.m.m.m.m.m.m.m.m.",
"m.m.m.m.m.m.m.1 1 1 1 1 1 1 2 5 t t t p p d p p s y s d y s t t t y 5 9 5 5 2 5 5 2 4 5 5 2 5 5 4 1 1 1 m.m.m.m.m.m.m.m.m.m.m.m.",
"m.m.m.m.m.m.m.3 1 1 1 1 1 1 1 1 1 1 1 4 4 4 5 t t p i p i p p p s d s s d s d i p p p p p p i t 5 3 3 m.m.m.m.m.m.m.m.m.m.m.m.m.",
"m.m.m.m.m.m.m.m.1 1 1 1 1 1 1 1 1 1 1 1 1 1 1 1 1 1 1 3 4 2 5 5 5 5 5 t t t t t t t t 5 5 4 2 1 1 3 m.m.m.m.m.m.m.m.m.m.m.m.m.m.",
"m.m.m.m.m.m.m.m.3 1 1 1 1 1 1 1 1 1 1 1 1 1 1 1 1 1 1 1 1 1 1 1 1 1 1 1 1 1 1 1 1 1 1 1 1 1 1 1 3 m.m.m.m.m.m.m.m.m.m.m.m.m.m.m.",
"m.m.m.m.m.m.m.m.m.3 1 1 1 1 1 1 1 1 1 1 1 1 1 1 1 1 1 1 1 1 1 1 1 1 1 1 1 1 1 1 1 1 1 1 1 1 1 1 m.m.m.m.m.m.m.m.m.m.m.m.m.m.m.m.",
"m.m.m.m.m.m.m.m.m.m.m.3 3 1 1 3 1 1 1 1 1 1 1 1 1 1 1 1 1 1 1 1 1 1 1 1 1 1 1 1 1 1 1 1 1 1 3 m.m.m.m.m.m.m.m.m.m.m.m.m.m.m.m.m.",
"m.m.m.m.m.m.m.m.m.m.m.m.m.m.m.m.m.3 3 1 1 1 1 1 1 1 1 1 1 1 1 1 1 1 1 1 1 1 1 1 1 1 1 1 3 m.m.m.m.m.m.m.m.m.m.m.m.m.m.m.m.m.m.m.",
"m.m.m.m.m.m.m.m.m.m.m.m.m.m.m.m.m.m.m.m.m.m.m.3 3 3 1 3 3 1 1 1 1 1 1 1 1 1 1 1 1 1 3 m.m.m.m.m.m.m.m.m.m.m.m.m.m.m.m.m.m.m.m.m.",
"m.m.m.m.m.m.m.m.m.m.m.m.m.m.m.m.m.m.m.m.m.m.m.m.m.m.m.m.m.m.3 3 3 1 1 3 1 1 1 1 3 m.m.m.m.m.m.m.m.m.m.m.m.m.m.m.m.m.m.m.m.m.m.m."
};
