/* XPM */
static char *_553b95e241f47a996df0b9ab3db96bcwjnt9Bg4o7WAzqF7[] = {
/* columns rows colors chars-per-pixel */
"64 64 169 2 ",
"   c #1FBDD6",
".  c #1FBCD9",
"X  c #20BED6",
"o  c #20BED9",
"O  c #2BBFD8",
"+  c #1FC3D4",
"@  c #1FC1D9",
"#  c #23C5CE",
"$  c #2CC8CE",
"%  c #21C5D5",
"&  c #2AC5D4",
"*  c #23CAD5",
"=  c #2BCAD5",
"-  c #21C4D9",
";  c #2BC5DA",
":  c #23CBDA",
">  c #2BCDDB",
",  c #31C6D6",
"<  c #32CAD5",
"1  c #3ACAD6",
"2  c #32C7D9",
"3  c #34CBDB",
"4  c #3DCDDC",
"5  c #24D1D6",
"6  c #2BD2D5",
"7  c #25DAD7",
"8  c #2EDDD7",
"9  c #24D3DB",
"0  c #2CD3DC",
"q  c #26DCDD",
"w  c #2ADCDD",
"e  c #31D5D7",
"r  c #32D8D7",
"t  c #32D5DC",
"y  c #3AD7DE",
"u  c #32DBDD",
"i  c #3BDBDC",
"p  c #2EE1D7",
"a  c #26E0DD",
"s  c #2CE1DD",
"d  c #33E3DE",
"f  c #3DE3DF",
"g  c #37EADF",
"h  c #22C3E0",
"j  c #24CCE0",
"k  c #2FCCE2",
"l  c #24D0E1",
"z  c #2DD4E1",
"x  c #26DCE1",
"c  c #2BDDE1",
"v  c #33D4E2",
"b  c #34DCE2",
"n  c #39DDE4",
"m  c #3ADFE9",
"M  c #2EE3E3",
"N  c #2FE8E3",
"B  c #32E5E0",
"V  c #32E6E1",
"C  c #33E4E3",
"Z  c #35E5E4",
"A  c #35E7E7",
"S  c #39E3E2",
"D  c #3CE1E1",
"F  c #3CE1E3",
"G  c #3BE2E4",
"H  c #3DE7E7",
"J  c #35E9E5",
"K  c #39E9E5",
"L  c #3BEBE6",
"P  c #38EEE5",
"I  c #3CEEE6",
"U  c #36E5E9",
"Y  c #3BE4E9",
"T  c #3BE7EA",
"R  c #34E9E9",
"E  c #39E9EB",
"W  c #3BECEA",
"Q  c #3AEEEA",
"!  c #3CEDE8",
"~  c #3EF0E5",
"^  c #3DF0E9",
"/  c #3FF1EB",
"(  c #44CDD6",
")  c #46CCD9",
"_  c #48CDD9",
"`  c #51CEDE",
"'  c #45D3DC",
"]  c #4AD2DC",
"[  c #41DBDE",
"{  c #43DDDC",
"}  c #4ADBDE",
"|  c #54D4DB",
" . c #5BD5DD",
".. c #54DADD",
"X. c #67DADF",
"o. c #68D9DD",
"O. c #4BE3DE",
"+. c #4ED7E0",
"@. c #45DFE1",
"#. c #4BDBE1",
"$. c #4CDEE3",
"%. c #59D0E0",
"&. c #53DBE2",
"*. c #63DCE2",
"=. c #6BDCE3",
"-. c #72DCE3",
";. c #7BDEE4",
":. c #43E3E2",
">. c #46E3E2",
",. c #4BE3E2",
"<. c #41ECE6",
"1. c #43EDEB",
"2. c #44EEEC",
"3. c #49EFEF",
"4. c #54E5E4",
"5. c #5CE5E4",
"6. c #54EAE6",
"7. c #43F1EC",
"8. c #47F4EC",
"9. c #4BF3ED",
"0. c #4BF6EF",
"q. c #4CF5EF",
"w. c #4EF9EE",
"e. c #4AEFF0",
"r. c #41F2F0",
"t. c #47F0F0",
"y. c #4EF7F1",
"u. c #4EF6F2",
"i. c #49FBF2",
"p. c #4EF8F1",
"a. c #53F5F1",
"s. c #50F9F1",
"d. c #52F8F2",
"f. c #62E2E2",
"g. c #6AE3E7",
"h. c #6DE4E5",
"j. c #6DE9E6",
"k. c #69E7E9",
"l. c #61E8E8",
"z. c #66EDE9",
"x. c #6DE9E9",
"c. c #74E4E5",
"v. c #7CE2E5",
"b. c #75E9E6",
"n. c #72E2E8",
"m. c #7EE4E9",
"M. c #75EDEA",
"N. c #75EBEC",
"B. c #7AEAE8",
"V. c #7DEBE9",
"C. c #82E3E7",
"Z. c #84EAE5",
"A. c #84E5EB",
"S. c #84EAEA",
"D. c #86ECE9",
"F. c #85ECEA",
"G. c #8AEDEA",
"H. c #92EBEB",
"J. c #93F0ED",
"K. c #8DEEF1",
"L. c #9BF2F0",
"P. c #A2EAEE",
"I. c #AAEDED",
"U. c #A6F5F4",
"Y. c #AAF4F2",
"T. c #B4F6F1",
"R. c #B9F6F1",
"E. c #B6F9F5",
"W. c #BBFAF7",
/* pixels */
"- - * - * - % - * % % % - - - % - * @ * - @ * * : 9 M E W c % % % - - . % : q M J L L M q q q x x x q q q q s c s 6 # % % % % % ",
"9 9 q 9 9 * * - - * * * - * * - * * : 9 9 q 9 9 x x c R A 0 * % - * * % # * : 0 B 7.i.W L 1.^ M x x x d { $.K.L.V.f.& % % % * 9 ",
"* 9 9 w w q q q q q q x q M A J R R J M q a q w u c c 0 : % % % - * % % % * * + % 5 q q s a M a x q x :.k.g.A.;.( = * % * % * % ",
"* * * Y H 2.q.q.8.P a q q c M B B B C M q a a s z.N.x.3 - X % % * 0 0 > % - % + % % * w d B M V B N M 0 > - % % # % * * + % % * ",
"5 * & * * t n D u 9 [ j.b.S.F.V.l.s q q q a q a d i < * % % - - X v m v - o o X - : * r i H p.d.u.p.d * * * % - % % > m n t * * ",
"% % o % X % + % * - 3 _ -.I.I.G.>.w s B B B L y.8.n % % % * - X X   .   o o % % * * % % + * 0 = 0 9 * # . % + + X X o ; > > % % ",
"- ; X X . . o . X - @ @ - & & * : 9 z b t.u.a.:.t * % % % % - % % X % % - @ % % + X % % % % @ % & + * + % * : : X X     . X . X ",
"n m v % . o - * * - * * - @ * - - - + * > l 6 # % % % % % % * % % * - + - * % * * % % % % * : * + * * @ % & + : % % X X . X o - ",
"- - % + X * * - : : * + % % - - - - - % % * % * * * % % * 9 9 9 9 5 * * * * * * 9 9 5 * % * * * % % % * * > : % * - - - @ + @ - ",
"% - -   % % @ + % o X X X % @ - + % + % # % % * 5 : : % - 9 9 9 M Y J c q B B J B 9 * - * % + % * * % % : n 1.A A B 9 : @ * + * ",
"% - * * * + * + % % X X @ + % + % % % % + X % % % % % % * % % - 0 r S ,.4.6.1.R 8 # % % % % & B D F > % * * 0 8 t C { $.{ } t % ",
"* * 9 t u e 5 5 - * * * - - * 9 : 5 * % % % + % % % + % + * - % * * = *.=.=.&.; - % % % % + % * : > % % % % + + % ; A.W.E.m.( % ",
"% % < h.B.j.d C L W C 9 q 9 q q 7 : * * % % * 0 0 6 % % % % - % * + * % X % % % * % # # + # % % % % % % @ : * : * % 3 ] ' = * % ",
"% % # $ $ } b.N.4.8 M ! ! 7.! b % # + + % % - b b n = * % * * * - % % * - o % % % % % * * + + * % % % % * : 5 5 * * @ + % - * % ",
": : * % + < _ _ 1 * = D 1.1.n * % X o X o o . . ; @.n n % X + - o . . . o X   % + % * : 9 9 : - * * % % % % X + - - * + - * * * ",
"q 9 9 * * - + - - - % % * * % % % % : - o o . . . - X X X o o - : : : - X % - = * * * * : * x M q q 5 5 7 * % * * * : 9 9 9 9 x ",
"7 * * * @ % - * - : : * - @ + % % % * * + @ - .       * - X . o @ + * * @ k Y D y & % % X % w L L R A q x w x x q q M R Y U A a ",
"* @ - X @ - %   * * * : - .     % % @ * * + % * + % % * - - + * % % + # + * * &.c.c.+.+ * * * * t e w x R W ^ M x x A P i.w.W 9 ",
"+ + * % - %   X . o o o o z b b = % : 9 9 9 * # * * * % - * + @ % * * 9 7 q x t e < = * # % + # % + * * 0 c f d c u w d s 0 : * ",
"+ * + % % @ - * * o . + - 0 t t : - * * x M c 7 7 9 * * * * * 5 9 9 q a M B c : * * + * % # # * # % - * * #.b.J.Y.Y.Y.G.#.* - * ",
"+ * - + % % * % * * @ + * * * - + * * % : <.8.L L c q q q q q J L <.1.8.d.2.r * % @ * : 5 : * + + + * : + : = ..v.v.v.) & % - * ",
"- * : : * c b d 6 * % # % . - * * * + @ - ; > b 4.4.w q a q s d 1.8.e.D 0 * # * % * @ * * * @ * + * * - % * + . + + + + * % % @ ",
"9 9 x M W 7.r.n 0 # + * + + % * : - * - * % % = | F.Z.G.G.Z.c.&.5 - - * @ * % % % % * * % % % * * + * - % + - - + 5 9 9 5 9 9 9 ",
"B C c x 0 6 5 @ % + * + % % % + . . - : 5 9 : @ % < o.P.P.A.) , % * % % * : * % * % % * % X o : : : * - - * : * + * : q d d J A ",
"8.u * * * + # + % * * : > = * - * + . X   % X X % % X $ & & + * * % - - % * - . o z n n > o X     * + @ * * : : * @ * * z S p.a.",
"* * % * * @ + * % % 9 B L I B 0 : : * % X   .     o X   X X + - o - : - - - o > e n v ; - o X o * + * & & % % - + * - - - * : & ",
"% % % * 5 9 5 * % % - : 5 d L L a 9 9 5 % % o o - X o X o X   X X X - % - - o ; z > ;   o % % * + % - } ;.=.( = : * 9 0 c > * * ",
"% % % % * + * @ % * % * % * = * * % % * % * - % * X X X > t v 0 X X X X . . o . .   .   - : : : * % % & _ -.h.:.a M Y W n : * % ",
"% # * @ + @ * - - : : * # + + % % % % % % % * * % - 9 0 u t w > X + - X . - . @ . @ - % * : * : * %   # # % > u L L U * + @ % % ",
"+ * : 9 : * * * * - # % * + % - * % * % % % * 9 * - b n n - @ @ * * : * * j j - : : * * % % * % + % % % % % % * * * % * - * * % ",
"% * 9 x q q q 9 * * * : : : 9 : * : : : 5 q q * * * : : * @ * * % % * + * - * - - * * # # + + % + @ # # # % % * % # # + % % % % ",
"% + % * 5 c H ! 2.2.J s 7 q q q w s M s L L u * % * 9 w q 9 : + + * + * + - % * % . % , 1 < & * * * : 5 9 9 : - % % % * 9 : % + ",
"+ * # % % : = n 7.8.<.W N q a s W W ! L 2.b : % * @ * 9 q a q q q 9 9 5 : * * * * * : 4.h.h.>.q 5 q q q 9 5 : * + * - * - - - * ",
"% + + @ * @ * % * = i @.D O.f D M c M M c * * * * - % * 7 s a q x q c L P P I L A q q s s d s d d 7.! M * * % % * * = 0 * * - * ",
"% * - - + % - - % = =.Y.W.E.G...: w G G b % + % @ * * + 0 H L L L L W L d w d d s s r p L L w.p.u.:.0 : % % % - % > n v 0 - - * ",
"  * - - - - @ @ % * * ] | | 1 # + * % % % % * - @ # % * * & 0 n 8.9.2.C c &.V.L.U.Y.G.i 9 & e 0 0 % # * % % * %     X X 3 m m v ",
". - : j : : : - % - * * + + % * + % % % @ * * - @ + % * % % % % * * * % % * 3  .;.C. .# * % % * % % + * + * - - - o + . o - - - ",
"+   @ - - - : - - - + % * * * : : % % % * - % + +   . % - : : * % % * + % # % % % - % % + - - @ % X @ > : * * * - % % % +   X X ",
"+ @ * * % % * % % % + * % * 5 * : % % % * + * % % X X - - : - % . o + % % + % & - * % %   % . %   % * - * 6 P F 0 6 9 0 9 * % % ",
"+ : : * % % % + # % % % % % % % % % * % % % % % % % % - - X % + o o - % * %             . o o @ % % % % @ * t <.H W W W M 9 > * ",
"w M q : * * * * % % # % % # % + % % - * @ * + + * & + * * * % . .       X o o o o o . . h : > j : : @ * * % * * * * > B <.1.7.Y ",
"0.S 0 - % * 9 : : * + % * 9 t v 0 * : 5 q :.5.5.O.q J C C 5 + # % % % - % X k k k O X X - : * + * + * @ % + * + % % * - u 2.2.2.",
"w * * % % % @ * % * * % * 9 b 9.2.W R w q G 5.4.{ A 8.n 0 * * % % % - < ( ( ' b t * X * : 9 - % + + . * * + + : % % X * % % % - ",
"% # % % % % + + % % % % - - % * : = e 5.5.5.0 5 * * * * & % * % % % - ' =.=.| # % % % % : - * * * * * * - - : + % % % * * * % * ",
"# + + @ * * 5 * # + + + - - % % % % & ] | ] & % % + % % * - - -   X X % - % X & % % : : * @ * * % * * + % + - + + + # : * * + % ",
"9 9 9 x q q J L n = @ % - - % X   X % . % + % % X % %     . - : : : - @ - % - % % * 5 : q q q w q w q 9 9 5 9 9 7 5 5 5 9 9 5 5 ",
"M x M a J B b 9 > * - @ - X o o   X . o o o + % o X o o .   - - - - - * % - * * * - - * : 5 w Y ^ N q q C B B C B d d s q x x x ",
"q x 9 0 d b 0 & * @ * * % * % % + % % o o o o o % - * - o   X * - % - @ % * % - % : 9 9 : + : * 9 c w c C R P J L P P d q x x x ",
"+ * + + % + * * @ * * * + + * * % * % + % - : : : + + * % % % + % + + @ + % % % + * * * * % % % * n 7.W J M q x P 8.q.w.<.b * * ",
"@ + * 9 * * * @ * + + + @ * * @ % % * * - : : : : @ * + % * * % 5 9 7 9 9 * % % % % % + # % % % * * 0 b v 9 : 9 9 t u u 6 & - + ",
"% @ 5 5 9 q q j * : : : 5 5 : : % % % % * % % * * * : 9 c R R B q a q q 9 - % % % * % # + + % + % % % + @ + * * % % % % % % * + ",
"% * @ + * i O.d q q q a x x w a w w 8 w w q 9 0 9 9 x q B d / t.! B 9 * * * % % # % % + % * * * * % % % * + * * % % % % - * % * ",
"% % % % . ] C.S.b.O.u w q a a R ^ ^ P P R N a x x x w w q q x c c : * # + + e *.X...6 9 F A C 9 * * % % % % - : * * % % + % # % ",
"% # % * % % & | H.S.h.i w s B B B B q q q a x x x R ^ W N a 9 * * + % + + * 3 ' } 5.6.,.<.w 0 & % % % %   # % * % - % * @ % % % ",
"* * * = * % # & & & & & > D u.u.8.L s c C u n u n D G B q : * + + # % + % % % * * #.*.*.' - % % % % % + % % * % v n n : X % + + ",
"v Y m n - X % X % + % % % * > 6 = * * ' S.Y.R.R.T.G.m.5.= * - * * * @ * - % @ % - . + * % % % % % % * * * % * * > k > 3 | ` ` & ",
"X o o o X o o o % % % % % % # % * # * * 1 o.=.=.o.1 & - - % . * * % - * .     . o - o - - - % % o % - % - % - - + . . O %. . .O ",
"X X X   o % % % % * * : * : * % + + + % % * + + * % * * : * % * % + - * * + * - % X X X X . @ - o o % - X -   o o . .         o ",
"X % * % - - 6 6 * * - : 5 * * # * # + * * - - - * * % * : % + * * * : * % % * * * X + + : j 9 j - o - X - - X   o o . o X % % X ",
"% * % * - z G n y & & % + * + + # % % * * : 9 9 9 - * % * * + : 9 t z * % % % % % % % * - - - - @ - + %   X . + % % % * * * % # ",
"% % - + & @ * & =.v.n.4 + % % % - %   - : * H L L c 9 9 0 q 7 O.M.B.f.* % % % % + * + % * @ + * * * * + @ * + * % % - b G D 6 % ",
"& , ; ; X %   X ; 2 ; * * % % % - - X X X % * 9 n j.j.5.w J J W i < & # # * 9 : : * * + + * : u n u u n n > % + * * - 9 5 9 * & ",
"..;.;.=., X     . - - . . % * : : j * % % % % % = _ ' 4 : 9 0 > * % # + + : * l q 0 9 0 0 9 * = z l 0 z 0 0 z z z b c w 9 * * % ",
"% , ; & X % +   - j - . . . . . - - % # % % + * @ % % * - - + % # % # + # + @ : q q M W L A 9 : 9 > 9 9 9 c Q W W J C 0 * % * @ "
};
