/* XPM */
static char *_5b302ed7d9d4d23e53f938f4b9505d430YN4usBtoNlRKyE[] = {
/* columns rows colors chars-per-pixel */
"64 64 210 2 ",
"   c None",
".  c #0C0705",
"X  c #0D0906",
"o  c #070503",
"O  c #120A06",
"+  c #130C08",
"@  c #1B0E0A",
"#  c #1C120C",
"$  c #18110A",
"%  c #141418",
"&  c #25180B",
"*  c #2B1D0E",
"=  c #26130D",
"-  c #251A15",
";  c #291A14",
":  c #271D19",
">  c #2B1E19",
",  c #3B1B12",
"<  c #321B12",
"1  c #2F2116",
"2  c #25201C",
"3  c #332313",
"4  c #3E2B16",
"5  c #34221A",
"6  c #3C211D",
"7  c #3D2B1A",
"8  c #372B1A",
"9  c #0C1320",
"0  c #151B21",
"q  c #1A1B20",
"w  c #332A23",
"e  c #3B2B23",
"r  c #322925",
"t  c #3E3323",
"y  c #3A332C",
"u  c #35312B",
"i  c #2F2A3E",
"p  c #3D3938",
"a  c #3A2A39",
"s  c #421C14",
"d  c #4C1D15",
"f  c #501F16",
"g  c #4F340C",
"h  c #432C16",
"j  c #4B2219",
"k  c #422D1B",
"l  c #4C2717",
"z  c #53251B",
"x  c #5B241A",
"c  c #5C291E",
"v  c #562217",
"b  c #4C351A",
"n  c #4C381D",
"m  c #43341F",
"M  c #5A3A15",
"N  c #52371B",
"B  c #52391B",
"V  c #573910",
"C  c #5B3B0C",
"Z  c #603E0C",
"A  c #432E25",
"S  c #492620",
"D  c #552C23",
"F  c #453326",
"G  c #4D3525",
"H  c #46312A",
"J  c #4B342B",
"K  c #4D382E",
"L  c #463828",
"P  c #52352B",
"I  c #5C3D29",
"U  c #563826",
"Y  c #463C35",
"T  c #443C3C",
"R  c #4A3B31",
"E  c #563737",
"W  c #5C4017",
"Q  c #68440E",
"!  c #70490F",
"~  c #7D510F",
"^  c #6B491B",
"/  c #744C12",
"(  c #764E1B",
")  c #7D5113",
"_  c #5D4225",
"`  c #59422F",
"'  c #4F4538",
"]  c #4B4232",
"[  c #554334",
"{  c #58473A",
"}  c #634621",
"|  c #754C2A",
" . c #232246",
".. c #352C48",
"X. c #342C42",
"o. c #3B3445",
"O. c #42394C",
"+. c #443B46",
"@. c #563C48",
"#. c #413953",
"$. c #543E51",
"%. c #494743",
"&. c #4C4A46",
"*. c #4F4F4B",
"=. c #484347",
"-. c #534A43",
";. c #5A4C44",
":. c #5E404B",
">. c #55534D",
",. c #5D534B",
"<. c #574D57",
"1. c #5C5954",
"2. c #5E5E5B",
"3. c #565552",
"4. c #4D4558",
"5. c #64554E",
"6. c #625645",
"7. c #644F50",
"8. c #774F54",
"9. c #6C5554",
"0. c #645B53",
"q. c #665F5A",
"w. c #745B5C",
"e. c #656157",
"r. c #6E6153",
"t. c #64635E",
"y. c #6A655C",
"u. c #796C5B",
"i. c #605E63",
"p. c #656563",
"a. c #6A6761",
"s. c #6C6B65",
"d. c #6E6E6A",
"f. c #676966",
"g. c #726D64",
"h. c #726F6A",
"j. c #786A6B",
"k. c #74736D",
"l. c #7B756C",
"z. c #77756B",
"x. c #676172",
"c. c #747472",
"v. c #7A7672",
"b. c #7C7B74",
"n. c #7D7C79",
"m. c #777874",
"M. c #806E53",
"N. c #84766E",
"B. c #827D75",
"V. c #827F79",
"C. c #7E807B",
"Z. c #848177",
"A. c #84837C",
"S. c #8A857D",
"D. c #8B897F",
"F. c #7D7E80",
"G. c #847B85",
"H. c #868682",
"J. c #898682",
"K. c #868984",
"L. c #8C8A84",
"P. c #8D8D8A",
"I. c #888888",
"U. c #918D84",
"Y. c #918F8A",
"T. c #8F908B",
"R. c #949187",
"E. c #94938C",
"W. c #99968D",
"Q. c #9C998E",
"!. c #959691",
"~. c #9A9791",
"^. c #969993",
"/. c #9C9B94",
"(. c #9D9D99",
"). c #A19D95",
"_. c #A19E99",
"`. c #9EA19C",
"'. c #9FA097",
"]. c #A4A196",
"[. c #A4A39D",
"{. c #A9A59D",
"}. c #ACA99E",
"|. c #A8A395",
" X c #B0AA9D",
".X c #A5A6A1",
"XX c #AAA6A1",
"oX c #A6A9A4",
"OX c #ABAAA5",
"+X c #ACADA9",
"@X c #B1ADA4",
"#X c #B2AEA9",
"$X c #B1A5A0",
"%X c #AEB1AC",
"&X c #B5B1A7",
"*X c #B3B3AD",
"=X c #BAB6AD",
"-X c #BCB8AE",
";X c #BAB5A7",
":X c #B4B6B2",
">X c #B4B5B1",
",X c #B9B7B1",
"<X c #B6B9B4",
"1X c #BBBAB4",
"2X c #BCBEB9",
"3X c #B7B9B8",
"4X c #C1BBAD",
"5X c #C2BEB6",
"6X c #C3C0B7",
"7X c #C4C0B8",
/* pixels */
"                                                                                                                                ",
"                                                                                                                                ",
"                                                                                                                                ",
"                                                                                                                                ",
"                                                      c.P.                                                                      ",
"                                                      p.j.F.                                                                    ",
"                                                        w.9.                  ..$.O.                                            ",
"                                                        H.n.                  ..8.:.                                            ",
"                                                          7.                    $.#.                                            ",
"                                                        c.E                       =...                                          ",
"                                                        i.                           .                                          ",
"                                                                ^.P.OXXX            4.        g.                                ",
"                                                H.h.s.h.H.A.L.&X#X.X1X5X      &.0.h.b.H.^.OX`.+X                                ",
"                                        ^..X,X(..X~.+X.X&X.XOX&XXX.X4X5X#XE.E.P..XoX!.OX>X=X+X1XOX                              ",
"                                      *X3X7X#X_.!.+X.X3X-X1X1XOX.X^.OX=X;XXX*X[.%X<X!.1X1X:X+X5X5X                              ",
"                                    ,X1X,X#XOXP.(.XX%X:X-X2X5X2X{.P..X@X@X#X_.>X%X3XOX2X&X#X+X5X5X=X                            ",
"                                  ,X@XOXXX{.).E./.^.OX3X-X*X1X>XOXH.^..X@X{.].+X<X;X>X`..X.X%X1X4X;XOX                          ",
"                                  #X[.^.W././.Y.E.{./.`./.'.OX+XOXY.L.!./.|.R.W.oX+X.X>X>XP..X'.{.}.).).                        ",
"                                  ).W.H.[.[.].E.T.          M.L.!.^.c.A.A.D.U.S.Z.(.XX*X+X/.L.b.B.i.                            ",
"                                  J.b.L.P.XX[.L.!.        w L z.L.E.R.B.  K       K A H A F R ;.q.H +.                          ",
"                                    y.s.m.l.  l.      J J Y ] ' ;.,.y.y.b.b.D.A.V.E.^.L.(.+XoXT.R.[.XX                          ",
"                                          g.0.g.A.K.C.K.L.(.`.!.P..X%XoX*X[.*X(.].'.[.(..XoX`.%X#X<X>X                          ",
"                                        OX^.P.OX[.[.^.E.^.oX%X[..X<XoX<X>X>X=XoXOX+X>XoX*X>XOX>X:X3X1X                          ",
"                                      OXXXP.+X%X<X`.`.%X.X%X%X.X%X%X+X1X%X2X*XoXoX%X*XoX<X>X+X>X2X3X2X#X                        ",
"                                    >X>X[.(.`.oXOXT.oXoX+X>X%X%X%X*X%X1X=X2X1XoX%X:X&X+X>X>X+X*X1X>X2X=X                        ",
"                                  1X=X.X!.=XoXOXOXL.>XOX+X<X&X%X>X*X*X6X*X2X1X%X%X:X,X+X<X1X+X&X1X*X2X5X                        ",
"                                  =X>X^.*XOX.X_.C.`.oX(.oX%X*X%X<X=X%X1X1X2X1X*XOX>X=X*X<X1X%X+X#X>X3X5X                        ",
"                                1X1XOX/.>X[.(.n.OX+X%X.X+X*X-XOX<X=X%X1X1X1X1X=XXX*X*X=X<X1X>XXXOX#X=X1X#X                      ",
"                                =XOXJ.>X#X_.H.(..XOX%X+XoX%X-X&X1X1XOX#X1X>X1X1XOXOX&X>X>X1X3X[.|.OX#X,X1X                      ",
"                              &X#XoXV.*X  L.I.(.{.+XoX+XoX+X1X*X,X1X_.OX=X%X=X<XOX{.&X*X&X1X2X(.).[.[.+X;XOX                    ",
"                              {..Xm.[.@X  n.^.(.[.OX^.oX.X%X=X*X,X,X_.|.@XOX*X*X&X{.{.%X>X1X3X].).).~.(.OX*X                    ",
"                              ].[.m.$X{.m.V.^./..XOXH.[.oX%X*X*X>X1X_.~.}.OX*XOX*XOX{.*X3X1X1X+X/.).W.R.W.OX[.                  ",
"                            [.(.m.h.{.m.s.!.E.).{.XX^.[..X%X&X;X+X>X+XW./.|.oXOXOX@X}._.*X1X1X:X!.W.L.U.J.P.[./.                ",
"                            _.P.n.s.b.d.a.P.!.)..X^.[.^.`.>X&X X.X+X&XP.U.R.^.[.{.@XXX}..X*X*X*X`.L.S.S.Z.c.k.Z.).              ",
"                            E.c.c.i.d.p.V.P.(.[..Xm.(.^.oXoX+X@X.X.XOXE.D.J.L.P./._.|.[.XX  H.s./.m.c.C.P.R.R.Y.B.b.            ",
"                            m.m.f.c.q.2.S.!.^.    s.T.^.T.2.w y 1.V.P.(.b.l.z.b.H.E.~.W./.{.R w e K K J J J P P                 ",
"                            c.c.d.f.1.3.k.h.        _.oXoX2.r.Z.2.!.(.A.t.a.S.A.s.h.b.A.B.U.(.W.`.^..XOX(.!.V.!.oX.X(.Y.        ",
"                          p.c.d.d.3.3.&.l.g.5.A n.0.0.;.T A.u.W.5.5.;.,.,.N.n.L.L.H.A.B.h.s.g.B.P.%X#X=X>XOX!.+X3X>X>X^.        ",
"                          s.2.f.p.>.*.%.:XXX(..Xm.[.(.p.T.^.T.!.h.c.v.k.p.a.y.H.P.U.^.l.N.S.Z.B.N.S.%X=X:X+X(.3X<X>X>X_.        ",
"                            p.f.3.>.%.%.OXoXoX^.n.XXI.P..XoX`.oXW.[.(.J.P.[..X+XOX*X#X_.^.OX@X+X[.^.>X,X,X+X+X3X1X<X1X+X        ",
"                          =X{.k.*.+.o.a 7X%X%XH.E.P.I..X+X+X>X`.*X*X+XOX+XXXoX(.>X,X*X[.%X,X,X%X>XOX&X=X<X+X>X3X1X1X5XOX        ",
"                      2 > _.)./.i E a @.=X'.`.n.A.C.`..X`.`..X].OXoX[.'.OXXX(.+X=X>X>XOX,X1X,X1X*XOX*X*X>XOX>X3X>X1X=X          ",
"                          &.0.R.X.<.<.O.I.oX.Xc.A.`.oX%XoX%X+X%X%X%XOX%X>X(.XXOX=X>X,X+X;X,X=X4XOX.XOX@X*X+X>X*X>X,X@X          ",
"                          L.v.;.m.W.[.G.x.oX!.p.3.oX%X%X+X+X+X+X+X%X+X+X_.+X.X@X*X=X>X+X#X#X&X=X_.)..XXXOX+X*X#X@X#XXX          ",
"                      v.'.A.[.!.b.v.l.Z.c.c.P.2.p OXoXoXoXoXOXOXOX'.OX(.[..X).}.#X*XOXXXXX#X&X$X~.R.(.|..XoXOX{.|.}.{.          ",
"                        D.W.C.^.R.R.L.H.T.n.m.a.p P.`.`.`.'.[./.^./.^.^.^.^.^.XX@XOXOX.X{.XX$X).~.J.Y.W.(.!././.~._./.          ",
"                        Q.C.Q.A.S.C.D.z.W..Xm.A.S.W.^.T.P.!.W.R.D.H.E.U.P.U.E..X X.X.X[.Q._.|.Q.^.B.B.V.H.S.A.S.S.J.U.Z.        ",
"                        C.C.g.D.z.z.P.A.U.D.s.J.b.m.L.S.C.A.L.A.b.A.H.P.A.A.E.].).].^.~./.Q.Q.).W.9.;.' ' >.,.q.e.0.e.s.        ",
"                            a.y.t.b.b.b.A.U.]   m   %.R [ [ ` I ` L G e Y 3.E.W.R.!.P.E.W.W.W.~.Y.;.= > k                       ",
"                                >.>.y.s.z.z.1.' ] _ B G F I G G I { L Y w 2 A.D.Z.n.A.J.U.W.R.U.D.B.k 3 O                       ",
"                                  Z.g.R.+X}.`.*XOXOXk.8 0 0 y W ) & - U A b y 7 $ ; H 6.h.b.b.B.Z.b.+ X                         ",
"                                    0.U.'.'.'.oXR.(.0.8 q % t 9 / b - 3 1 < > 6 h 3 h 3 ; 6 7 G u r #                           ",
"                                    y.Z.U.W.W.^.U.!.u.V h M Q / ~ : - ; 6 b 3 B * - @ 3 k 3 + # X + <                           ",
"                                      h.D.Z.C.S.C.Z.C.W W ( | | } A - B 3 * # + & , N 3 O o O X O j                             ",
"                                        C.v.k.b.k.f.s.( / / ! Q : : X # # * 5 b h @ o X . . X s z                               ",
"                                                ' ] ' y $ o o 4 5 } } N h h @ X o . . X O , j                                   ",
"                                                  X X @ 7 g Z V # # @ X X . . . o X O , f                                       ",
"                                                    X X X : > O X X X . X X . . = s ,                                           ",
"                                                      d v I j ; - @ X O O @ , s j                                               ",
"                                                      c x D j D c v d f c z                                                     ",
"                                                        c z j j d v j j                                                         ",
"                                                        j c v f v j                                                             ",
"                                                          S z z                                                                 ",
"                                                                                                                                "
};
