/* XPM */
static char *result[] = {
/* columns rows colors chars-per-pixel */
"64 64 246 2 ",
"   c #2B1A0B",
".  c #361A08",
"X  c #311D14",
"o  c #39220E",
"O  c #392315",
"+  c #4A2D1D",
"@  c #462A17",
"#  c #532F19",
"$  c #47321C",
"%  c #54341D",
"&  c #5B361D",
"*  c #47250E",
"=  c #63391D",
"-  c #693A1B",
";  c #6F381A",
":  c #4C3722",
">  c #533622",
",  c #5C3B23",
"<  c #553B25",
"1  c #4A362D",
"2  c #673C24",
"3  c #73441F",
"4  c #5C4429",
"5  c #594B36",
"6  c #6A4529",
"7  c #7C4A24",
"8  c #774626",
"9  c #694B34",
"0  c #7B4E32",
"q  c #785638",
"w  c #735436",
"e  c #575143",
"r  c #685C4C",
"t  c #795B45",
"y  c #67524A",
"u  c #6E624C",
"i  c #76644A",
"p  c #786957",
"a  c #736A59",
"s  c #7C7365",
"d  c #716E67",
"f  c #86481C",
"g  c #984B1B",
"h  c #844C23",
"j  c #8A4D23",
"k  c #854C2A",
"l  c #8B522A",
"z  c #88512A",
"x  c #94552B",
"c  c #93592C",
"v  c #9C5C2C",
"b  c #985526",
"n  c #875735",
"m  c #985B34",
"M  c #8D4E28",
"N  c #A45D2B",
"B  c #A85C28",
"V  c #A25D33",
"C  c #A65F34",
"Z  c #B15E23",
"A  c #9D633B",
"S  c #89613E",
"D  c #AC622D",
"F  c #A6612D",
"G  c #B2642D",
"H  c #A36233",
"J  c #AC6533",
"K  c #AD6B3B",
"L  c #AA6636",
"P  c #B36631",
"I  c #B56A36",
"U  c #BA6C34",
"Y  c #B56D3A",
"T  c #B96E3B",
"R  c #B66638",
"E  c #BC713D",
"W  c #BB7035",
"Q  c #AF703F",
"!  c #C47439",
"~  c #885E48",
"^  c #896749",
"/  c #976A47",
"(  c #856C55",
")  c #8C745A",
"_  c #98795B",
"`  c #917052",
"'  c #A86C43",
"]  c #B26D43",
"[  c #B87548",
"{  c #A07350",
"}  c #847664",
"|  c #887B66",
" . c #937D66",
".. c #887D74",
"X. c #8B7569",
"o. c #A47963",
"O. c #C47B47",
"+. c #97805D",
"@. c #A4855E",
"#. c #8B826C",
"$. c #95846C",
"%. c #9C856C",
"&. c #99896A",
"*. c #8B8373",
"=. c #8C8775",
"-. c #928A76",
";. c #9B8B74",
":. c #948D7B",
">. c #978775",
",. c #99927C",
"<. c #A88D69",
"1. c #A58D75",
"2. c #A4947C",
"3. c #AB9A7B",
"4. c #A89677",
"5. c #B49879",
"6. c #B08C6B",
"7. c #B5A27F",
"8. c #CE8146",
"9. c #968D81",
"0. c #9D9483",
"q. c #9D978B",
"w. c #898980",
"e. c #A29583",
"r. c #A59B85",
"t. c #AA9B84",
"y. c #A49B8B",
"u. c #AC9E8B",
"i. c #A89686",
"p. c #B59D85",
"a. c #A59D92",
"s. c #ADA28D",
"d. c #A7A288",
"f. c #B4A38B",
"g. c #B7A58A",
"h. c #ACA393",
"j. c #ACA49C",
"k. c #ADAA9A",
"l. c #AAA695",
"z. c #B2A493",
"x. c #B3AB93",
"c. c #BCAD95",
"v. c #B3AC9D",
"b. c #B9AE9C",
"n. c #BBA697",
"m. c #BCB29C",
"M. c #B8B298",
"N. c #B5ADA3",
"B. c #BEABA2",
"V. c #BCB4A3",
"C. c #BCB5AB",
"Z. c #BDBAAB",
"A. c #B5B4A7",
"S. c #BDB8B1",
"D. c #ADACA0",
"F. c #C5AC8C",
"G. c #C5AE95",
"H. c #C3B59C",
"J. c #C9B29A",
"K. c #CBBC9E",
"L. c #C4B697",
"P. c #CEAF8C",
"I. c #C3B5A3",
"U. c #C3BBA4",
"Y. c #CCBCA4",
"T. c #C4BBAC",
"R. c #CABEAC",
"E. c #C7B4A6",
"W. c #D3BBA7",
"Q. c #C4BEB3",
"!. c #C9BDB4",
"~. c #C8AFA1",
"^. c #BEC0B3",
"/. c #CDC3A6",
"(. c #CBC2AB",
"). c #C7C1AA",
"_. c #D2C4AD",
"`. c #D4CAAE",
"'. c #D4C3A7",
"]. c #C4C1B5",
"[. c #CBC3B4",
"{. c #C4C1B9",
"}. c #CDC5BA",
"|. c #CDCABA",
" X c #D1C6B3",
".X c #D4CBB4",
"XX c #DCCDB5",
"oX c #D3CBBB",
"OX c #DACBB9",
"+X c #D6D2BC",
"@X c #DCD4BC",
"#X c #DAD2B3",
"$X c #E3D5BD",
"%X c #E5D6BA",
"&X c #E0CCBA",
"*X c #BFC5C1",
"=X c #CCC9C3",
"-X c #D2CDC3",
";X c #D7CDC7",
":X c #DBD4C3",
">X c #DED9C5",
",X c #DAD5CB",
"<X c #DCD9CC",
"1X c #D6D3C7",
"2X c #DCDBD2",
"3X c #DBD5D4",
"4X c #E4DBC4",
"5X c #E9DDC4",
"6X c #E2DCCB",
"7X c #EBDDCA",
"8X c #E4D5C5",
"9X c #E4DDD3",
"0X c #E7DCD4",
"qX c #E5E2CC",
"wX c #EAE3CD",
"eX c #EAE4C8",
"rX c #F1E4CB",
"tX c #E5E1D5",
"yX c #ECE5D3",
"uX c #EDE9D4",
"iX c #E6E2DA",
"pX c #EAE5DB",
"aX c #ECEADA",
"sX c #F2EBD4",
"dX c #F2EDDB",
"fX c #F5E9D8",
"gX c #F5F2DD",
"hX c #FAF3DE",
"jX c #F9F5DA",
"kX c #E6E6E6",
"lX c #EAE6E3",
"zX c #EBE9E4",
"xX c #E4E6E9",
"cX c #E9E6EA",
"vX c #E6E9E9",
"bX c #EAEAEA",
"nX c #E4E9E6",
"mX c #F3EDE1",
"MX c #F5F3E3",
"NX c #FAF4E3",
"BX c #FBF6E9",
"VX c #FDFAEB",
"CX c #FBF9E5",
"ZX c #F0F3EB",
"AX c #DEE6EA",
"SX c None",
/* pixels */
"SXSXbXbXSXbXbXbXbXbXbXbXbXbXbXSXbXbXbXbXbXZXSXbXcXbXbXbXbXbXbXbXbXSXbXbXSXbXbXbXSXbXbXbXbXbXbXbXbXbXbXbXbXbXSXbXbXbXSXbXbXbXbXbX",
"SXSXkXvXSXSXbXSXSXbXkXSXSXbXSXSXkXkXSXSXbXSXSXSXSXSXSXbXlXSXSXbXSXSXkXvXSXSXvXSXSXlXlXSXSXbXSXSXSXbXSXSXkXkXSXSXbXSXSXkXkXSXSXbX",
"SXSXSXSXSXSXSXSXSXSXSXSXSXSXSXSXSXSXSXSXSXSXSXSXSXSXSXSXSXSXSXSXSXSXSXSXSXSXSXSXSXSXSXSXSXSXSXSXSXSXSXSXSXSXSXSXSXSXSXSXSXSXSXSX",
"SXbXSXSXkXSXSXSXbXSXSXSXSXSXSXvXSXSXbXSXSXSXlXSXSXSXSXSXSXvXSXSXSXvXSXSXbXSXSXSXiXSXSXSXSXSXSXbXSXSXSXbXSXSXbXSXSXSXbXSXSXbXSXSX",
"SXSXSXSXSXSXSXSXSXSXSXSXSXSXSXSXSXSXSXSXSXSXSXSXSXSXSXSXSXSXSXSXSXSXSXSXSXSXvXSXSX;XSXSXSXSXSXSXSXSXSXSXSXSXSXSXSXSXSXSXSXSXSXSX",
"SXSXbXSXSXSXbXSXSXSXkXSXSXbXSXSXSXcXSXSXbXSXSXSX,XSXSXvXSXSXSXbXSXSXSXbXSXSXkXSXSX1XlXSXSXkXSXSXSXbXSXSXkXSXSXSXkXSXSXSXbXSXSXkX",
"SXSXSXSXkXSXSXSXSXSXSXSXSXSXSXkXSXSXSXSXSXSXpXSXSXSXSXSXSXSXSXSXSXkXSXSXSXSXSXSX<XSXSXSXSXSXSXSXSXSXSXkXSXSXSXSXSXSXkXSXSXSXSXSX",
"SXSXSXSXkXSXSXSXSXSXSXSXSXSXSXkXSXSXSXSXSXSXlXSXSXSXSXSXSXcXSXSXSXkXSXSXSXSXSXSX:X:XSXSXSXSXSXSXSXSXSXcXSXSXSXSXSXbXkXSXSXSXSXSX",
"SXSXkXkXSXSXkXSXSXSXbXSXSXkXSXSXvXnXSXSXSXSXSXa.y.SXSXSXSXSXSXkXSXSXkXkXSXSXkXSXSXQ.lXSXSXbXSXSXSXkXSXSXkXkXSXSXkXSXSXkXSXSXSXbX",
"SXSXSXSXSXSXSXSXSXSXSXSXSXSXSXSXSXSXSXSXSX}.,X[.Q.oX].,XSXSXSXSXSXSXSXSXSXSXSXSXT.C.SXSXSXSXSXSXSXSXSXSXSXSXSXSXSXSXSXSXSXSXSXSX",
"bXbXSXSXkXSXSXSXkXSXSXkXSXSXSXkXSXSXkXSXpXMXSXSX<X.XZ.Z.SXvXSXSXSXkXSXSXSXSXSX9XT.b.SXSXSXSXSXnXSXSXkXkXSXSXbXSXSXSXkXSXSXkXSXSX",
"SXSXSXSXSXSXSXSXSXSXSXSXSXSXSXSXSXSXSXSXSXSXSXSXSXdX+X].3XSXSXSXSXSXSXSXSXSXC.OXE.c.R.C.SXSXSXSXSXSXSXSXSXSXSXSXSXSXSXSXSXSXSXSX",
"SXSXSXSXSXSXkXSXSXSXbXSXSXkXSXSXSXSXSXSXiXSXSXSXSXMX:XA.S.SXSX3XSXSXSXSXSXSX6XfXwX5X Xb.N.SXSXSXSXkXSXSXSXSXSXSXSXSXSXSXkXSXSXbX",
"SXSXSXSXSXSXSXSXSXSXSXSXSXSXSXSXSXSXSX9XtXhXhXrX4X+XU.s.D.bXSXSXSXSXSXSXSXSXdXVXVXVXyXXXE.tXSXSXSXSXSXSXSXSXSXSXSXSXSXSXSXSXSXSX",
"kXkXSXSXkXSXSXSXkXSXSXbXSXSXSXvXSXSX2X|.)./.'./.L.d.;.#.=.9XSXSXSXSXSXSX{.=XaXBXSXSXBX4X).SXSXbXSXSXSXkXSXSXkXSXSXSXbXSXSXkXSXSX",
"SXSXSXSXSXSXkXSXSXSXSXSXSXkXSXSXSXiX1Xv.x.x.c.3.3.M.d.#.r SXSXvXSXSXSXSXSX<X6XsXrX5X$X(.z.j.SXSXSXkXSXSXSXSXSXSXSXSXSXSXkXSXSXbX",
"SXSXSXSXSXSXkXSXSXSXSXSXSXkXSXSX[.T. X@X}.[.OXB.m.-XmX0X0.SXSXcXSXSXSXSXSX[.L.G.g.5.3.$.| =.SXSXSXlXSXSXSXSXSXSXSXSXSXSXkXSXSXSX",
"SXbXSXSXkXSXSXSXvXSXSXvXkXSXSX}.+X)..X X[.T.T.E.T.Z.T.!.R.V.SXSXSXSXSXSXN.,.r.g.<.$.M.Z.a.s SXkXSXSXSXkXSXSXbXSXSXSXkXSXSXkXSXSX",
"SXSXSXSXSXSXSXSXSXSXSXSXSXSXSXQ.qXqXuXdXaXqX0X6X>X1X|..XE.k.k.,XlX=Xi.2.M./.oX.XV.U.].tX2XT.SXkXSXSXSXSXSXSXSXSXSXSXSXSXSXSXSXSX",
"SXSXkXkXSXSXkXSXSXbXbXSXSXkXSXSXSX2XSXSXSXSXSXSXzXmX<X-X,X1XQ.{.SXSXY.XXXX$X@XOX[.U.m.R.H.f.0.q.SXSXSXSXkXkXSXSXkXSXSXkXkXSXSXbX",
"SXSXSXSXSXSXSXSXSXSXSXSXSXSXSXSXSXSXSXSXSXSXSXSXSXSXSXSX].<X=XZ.SXSX0XdXjXCXBXSXNXuX>X+X_.(.].a.SXSXSXSXSXSXSXSXSXSXSXSXSXSXSXSX",
"SXbXSXSXkXSXSXSXSXSXSXSXSXSXSX!.;XSXSXSXSXSXSXSXSXSXSXSXSX{.-XZ.A.=XSXSXSXSXSXSXSXMXMXqXwX>X@XQ.SXSXSXvXSXSXbXSXSXSXkXSXSXSXSXSX",
"SXSXSXSXSXSXSXSXSXSXSXSXSXSXSXN.-XSXSXSXSXSXSXSXSXSXSXSXpXS.A.Z.l.SXSXSXSXSXSXSXSXSXSXaXyXyX6X1Xj.SXSXSXSXSXSXSXlXSXSXSXSXSXSXkX",
"SXSXbXSXSXSXbXSXSXSXSXSXSXSXSX9.oX<XdXVXSXSXSXSXSXSXSXSXzX<Xl.l.q.SX3XSXSXSXSXSXSXSXSXSXaXuX9X,X}.q.SXSXSXSXSXSXvXSXSXSXSXSXSXvX",
"SXSXSXSXkXSXSXSXSXSXSXSX!.SXz.x.!. XgXMXSXSXSXSXSXSXSXzXiX-X].q.0.k.SXSXSXSXSXSXSXSXSXSXaXpX6X:XoXj.SXSXSXSXvXSXSXSXkXSXSXSXSXSX",
"SXSXSXSXkXSXSXSXSXSXSXSX:X7XXX&X_. XNXNXSXSXSXVXCXaXiXtX2X|.Z.k.:.w.SXaXVXSXSXSXSXSXVXVXdXeX6XoX!.v.j.SXSXSXSXSXSXSXSXSXSXSXSXSX",
"SXSXkXkXSXSXkXSXSXvXvXSXzXdXuXgXuX@XwXeXwXSXzXMXaX>X<X1X-X|.V.k.:.=.2XtXCXSXSXSXSXMXgXsXwX>X.X[.T.j.v.SXvXlXSXSXkXSXSXkXSXSXSXbX",
"SXSXSXSXSXSXSXSXSXSXSXSXtXtXMXdXuX.X#X#X@X6X>X>X:X:XoX}.].T.k.q.:.*.N.tXsXsXSXNXdXwXqXqX$X.XI.I.b.h.r.v.=XSXSXSXSXSXSXSXSXSXSXSX",
"bXbXSXSXkXSXSXSXcXSXSX6X.X@X6X.X).M.K.H.U.`.(.(.(.Q.!.C.b.k.d.:...s *.M.%X@X4X4X@X#X#X`._.Y.b.s.e.:.*.T.w.SXkXSXSXSXkXSXSXkXSXSX",
"SXSXSXSXSXSXSXSXSXSXpXm.4.g.5.1.&.4.x.x.s.M.M.M.m.v.b.j.h.e.:.#.p u y.2.L.L.L.K.K.K.L.L.c.z.t.;.$.X.X.[.q.q.mXtXSXSXSXSXbXSXSXSX",
"SXSXSXSXSXSXkXSXSXpX}.,.f.&._ ` &.,.e.r.d.d.d.d.d.y.0.*...} s p r a ).,.4.4.3.7.7.d.d.3.3.&.$.) ) r u 8Xj.w.aX7X-XSXSXSXkXSXSXbX",
"SXSXSXSXvXSXSXSX}.oX=X|.1Xl.1._ $.-.:.-.=.-.,.,.x.=.0.9.....s r e u /.+.@.@.+.+.<.&.;.+.#.p p u u 5 r ,XSXd D.8XSXSXSXSXSXSXSXSX",
"SXSXSXSXvXSXSX-X=XSXSX=XSXS.K.4.x.A.Z.N.} I.G.3.XX-.Z.SXSXSXSXSXy.,.V.>.1.) e.g.@.L.;.r.x.A.k.| *.a e SXSXSX1XW.SXSXSXSXSXcXSXSX",
"SXSXSXSXSXSXbX0XSX0XoXSXi.R.K.5.g.s.,XE.9.6XW.5.J.#.v.:X[.oX8X[.SXSXA.C.SX:.=X~.<.F.:.SXSX].SXSXSX{.SXSX3XiXuXp.b.SXSXSXSXSXSXbX",
"SXSXSXSXSXSXSX3XS.!.u.g.g.Y.G.g.c.n.OXp.h.(.J.p.J.,.x.K.c.g.c.c.p.d.3.&. .u.;X~.6.L.e.N.tX<X{.Z.-X=XSXSXv.T..XK.E.!.v.S.SXSXSXSX",
"bXbXSXSXvXSXSXSXN.SXY.G.K.`.XX$X5X$XXXXX`.`./.K.'._.f.u.1.t.g.g.3.5.g.g.p.f.G.g.5.G.h.v.C.m.m.h.b.z.e.>.r.`.+X.X/.'.H.b.SXSXSXSX",
"SXSXSXSXSXSXSXZ.SXSX<X)..XXX4XuXfXfXsXwXsX7X4X4X4X4X@Xm.(..X$X5X>XqXqX:X1X<X<X:X&X8X:XoX1XoX}.[.].T.l.u.Y.sXNXMXjXeX4X).{.SXSXSX",
"SXSXvXSXSXSXxX].SXSX9X[.@XeXwXsXCXVXVXSXVXVXBXBXgXdXsX6XT.qXsXyXgXVXCXaXaXaXmXpXzXpXaXtXiX9X9X2X1X,X}.E.!.NXVXVXCXjXsX+Xv.SXSXnX",
"SXSXSXSXSXSXSXa.R.SX1Xk.@XuXsXhXVXVXSXSXSXSXSXBXVXpXaXmX<XtXCXBXSXSXSXSXSXSXSXSXSXSXZXMXtXiXiXiX2X=X-X|.R.dXVXVXVXVXjXqXZ.^.SXSX",
"SXSXSXSXN.,Xj.>.I.{.M.=.m.@X4XuXMXVXSXSXSXSXSXBXNXaXpXlXpXtXBXVXSXSXSXSXSXSXSXSXSXSXSXMXSXSXpXiX,X-X-X|.R.sXNXBXCXjXuX+XM.k.SXSX",
"SXSXSXSXB._. . .1.2.i.a.u._.4XwXfXhXVXSXSXSXSXMXMXaXiXpX0X,XtXMXVXSXSXSXSXSXSXSXSXSXSXSXSX{.,X3X=X-X].T. X$XrX5X$XXXR.x.0.=.SXcX",
"SXSXSXfXf.t , > 2 % , a ,.W.#XeXeXhXCXMXMXmXyXqXuXwX6X,X1X[.-X7XaXCXCXSXSXSXSXSXSXSXSXSXSX1XA.Q.=X{.V.h.G.F.F.p.4.;.$.} a y SXcX",
"SXbXSXSX( # 6 8 8 2 6 , w H.(._.@XeXuXqXeX4X$XoX X.X[.!.!.I.I.4XjXaXaXSXSXSXSXSXSXSXSXSXkX;XV.C.oXC.u._ _ &.3.t.c.H.T.SXSX..SXSX",
"SXSXSXSXy   o = 0 q / / ^ f.H.H.(..X.X#X'.'./.U.V.M.v.x.l.u.r.@XeXwXaXdXpXSXSXdXfXyXtXtX-Xb.I.3.2.f.%._ +.K..X[.(.T.T.SXSXSXSXSX",
"SXSXvXlX1 X X   @ & q q w #.d.3.3.d.M.M.x.x.x.f.s.t.0.:.*.#.#.(.@X+X>X6XtX,X X X:XOX}. XI.t.g.F.F.L.J.F.L.K.Y.I.M.s.V.SXSXSXSXbX",
"SXSXSXSXy 1 X   $ % @ , 4 i #.+.#.&.4.&.:.,.,.<.>. .} } a u a b.Z.V.V.T.!.R.Z.N.A.V.N.j.h.f./.%XeXeXrXrX%XeX5X@X#X/.R.SXSXSXSXSX",
"kXkXSXa y > . . o $ O O O i i i p ` ` ` i i i { w t ( i.3.M.e.-.d.e.0.e.u.e.y.a.y.y.q.9.#.#.e.%XsXMXNXhXsXsXqX>X`.(.T.SXSXvXSXSX",
"SXSXSXi.2 ; 6 6 $ o o o $ 4 : < 4 w q n q 8 0 { 2 + 4 q ( $.0.| #.| *.-.-.*.%.1.%.%. .1.;. .1.`.eXyXdXhXgXsX6XoX).v.a.SXcXSXSXSX",
"SXSXSX6X( + 8 m L 0 = @ $ 1 $ 4 + $ * 2 9 6 < , < : > # & 6 w t i ( X.` _ <./ ~ o.~ t t t q / P.OX5X7X9X6X8XoXC.u.:.SXbXvXSXSXbX",
"cXkXSXSXR.~ 8 K ] K H H c k 3 & < @ O X O o @ $ : % < > % % # > $ > + @ @ 4 6 & 2 % $ : > w A g.V././.Y.H.b.z.e.} } SXSXSXcXSXSX",
"SXSXSXSX%X{ x j x m V Y W ! P v c 7 2 + + . O O O . X * % $ # : O 1 X @ . . , q 9 q w i ` / t +.$.<.<.$.$.| ( r 5 | SXSXSXSXSXSX",
"SXSXSXkXSXSX^ l k n z m c / v L R ] Y E ' n n 7 7 8 = 7 8 2 7 8 2 0 = 2 = = - 0 n 0 n ^ A n w w i ^ | u -...u -.q.SXSXvXvXSXSXbX",
"SXSXSXSXSXSXSX_ x N B C N ' k / k m M U V H H J ] ' [ ' ' Q ' [ ] ] O.O.@.] V H m c z m H c 7 7 S ` 0XSXSXSXSXSXSXSXSXSXSXSXSXSX",
"bXbXSXSXxXSXSXSXo.k x C R C x V V L V ] A m A g [ k Y c l ! k Y R j ! O.E 7 f v v v v x Y K F B A SXnXkXSXSXcXSXSXSXkXSXSXcXSXSX",
"SXSXSXSXSXSXSXSXSXn x g b V C R U P T W I N B B E N U I N O.v N R g ! 8.[ c l G B x c v U T L / J.nXSXSXSXSXSXSXSXSXSXSXSXSXSXSX",
"SXSXkXkXSXSXkXSXSXn [ L g j j N J I U U P D D J U P T E E Y L J D P U O.Y E Y B g z k B G K m p.mXnXSXSXkXkXSXSXkXSXSXkXSXSXSXkX",
"SXSXSXSXkXSXSXSXR.~ [ ! R B b f f b Z F J H J Y I D I T I I D T U ! W U G T D N x k f Z I z ( 3XSXSXSXkXSXSXSXSXSXbXkXSXSXSXSXSX",
"SXSXSXSXkXSXSXSX2XN.W.P.F.6.5.o.{ n k h f f c v D F F N D P G U Z G D D N N b l k 7 f G l t SXvXSXSXSXkXSXSXSXSXSXSXkXSXSXSXSXSX",
"SXSXbXSXSXSXbXSXSXbXcXSXSXpXmXfX8X&XW.g.1.^ 8 8 7 h 7 f M b b N v v j M k f h 8 ; ; v n w -XSXSXSXlXSXSXkXSXSXSXkXSXSXSXbXSXSXkX",
"SXSXSXSXSXSXSXSXSXSXSXSXSXmXSXSXSXSXSXSXSXSXSXSXSX$. .9 , 6 6 = 2 ; ; - - - = % - v ' i.SXSXSXSXSXSXSXSXSXSXSXSXSXSXSXSXSXSXSXSX",
"SXbXSXSXkXSXSXSXSXSXSXSXSXSXSXcXSXSXSXbXSXSXkXSXSXSXSXSXSXSXSXSX) X.( ~ 0 8 2 8 n / P.aXSXSXSXSXSXSXSXkXSXSXbXSXSXSXkXSXSXSXSXSX",
"SXSXSXSXSXSXSXSXSXSXSXSXSXSXSXSXSXSXSXSXSXSXSXSXSXSXSXSXSXSXSXSXSXSXSX0XXXJ.J.p.6.g.fXzXSXSXSXSXSXSXSXSXSXSXSXSXSXSXSXSXSXSXSXSX",
"SXSXkXkXSXSXkXSXSXbXbXSXSXlXSXSXSXkXSXSXkXSXSXSXkXSXSXbXSXSXSXkXSXSXSXvXSXSXcXSXSXSXSXSXSXbXSXSXSXvXSXSXkXSXSXSXkXSXSXkXkXSXSXbX",
"SXSXSXSXSXSXSXSXSXSXSXSXSXSXSXSXSXSXSXSXSXSXSXSXSXSXSXSXSXSXSXSXSXSXSXSXSXSXSXSXSXSXSXSXSXSXSXSXSXSXSXSXSXSXSXSXSXSXSXSXSXSXSXSX"
};
