/* XPM */
static char *result[] = {
/* columns rows colors chars-per-pixel */
"64 64 231 2 ",
"   c #7E3E0E",
".  c #7F4317",
"X  c #834617",
"o  c #864917",
"O  c #8B4D17",
"+  c #854618",
"@  c #874818",
"#  c #8C4C18",
"$  c #884718",
"%  c #904F18",
"&  c #8F5018",
"*  c #8F5017",
"=  c #935317",
"-  c #9B5A16",
";  c #935318",
":  c #975818",
">  c #995A18",
",  c #995614",
"<  c #9A520F",
"1  c #9F6116",
"2  c #B96D0D",
"3  c #BE7D0E",
"4  c #BB730D",
"5  c #A46617",
"6  c #A86614",
"7  c #A76817",
"8  c #AD6B16",
"9  c #A36618",
"0  c #A56918",
"q  c #AC6D18",
"w  c #B06D16",
"e  c #BF6316",
"r  c #AF7016",
"t  c #B37315",
"y  c #B97314",
"u  c #B67A16",
"i  c #BA7B13",
"p  c #B37419",
"a  c #B97C1B",
"s  c #C17F0D",
"d  c #CA7A0E",
"f  c #D1750F",
"g  c #D2790C",
"h  c #D97F0B",
"j  c #C56C13",
"k  c #C96C13",
"l  c #C26314",
"z  c #C57C15",
"x  c #CA7A12",
"c  c #CB7013",
"v  c #D27D11",
"b  c #BD8215",
"n  c #BE8619",
"m  c #BF9114",
"M  c #BB8437",
"N  c #C7860D",
"B  c #DB8207",
"V  c #D5840C",
"C  c #DB850A",
"Z  c #DE8A09",
"A  c #CD920E",
"S  c #D2960D",
"D  c #D49A0E",
"F  c #DA9E0D",
"G  c #DB910D",
"H  c #C28413",
"J  c #C58A14",
"K  c #C98D12",
"L  c #C48B1B",
"P  c #C9871A",
"I  c #D38314",
"U  c #DA8B15",
"Y  c #D58E19",
"T  c #C59416",
"R  c #CC9212",
"E  c #CC9D16",
"W  c #CC921D",
"Q  c #C79A17",
"!  c #D09611",
"~  c #DE9314",
"^  c #D39A11",
"/  c #D4971A",
"(  c #DD9419",
")  c #D99C17",
"_  c #E38C08",
"`  c #E1930B",
"'  c #E59A0B",
"]  c #EC9A0C",
"[  c #E69408",
"{  c #E29A13",
"}  c #E69B18",
"|  c #E59411",
" . c #F49D12",
".. c #F19A0E",
"X. c #DDA40D",
"o. c #DBA90F",
"O. c #CDA415",
"+. c #D6A214",
"@. c #DAA311",
"#. c #D3AB16",
"$. c #DDA912",
"%. c #DBA41B",
"&. c #D9AA19",
"*. c #D6B215",
"=. c #DBB615",
"-. c #DDBC15",
";. c #DEB619",
":. c #E1A70C",
">. c #EBA40F",
",. c #E4AB0D",
"<. c #E8AE0E",
"1. c #E6B20E",
"2. c #E9B20F",
"3. c #E8BC0F",
"4. c #E7B90E",
"5. c #ECA313",
"6. c #E5AD11",
"7. c #ECAD11",
"8. c #EBA319",
"9. c #E2AB1C",
"0. c #E7A616",
"q. c #F5AC16",
"w. c #F4AC19",
"e. c #F8AE1A",
"r. c #F7AB19",
"t. c #E5B313",
"y. c #EAB311",
"u. c #E5BC14",
"i. c #EBBC11",
"p. c #EDB41A",
"a. c #EEBA1A",
"s. c #E6BF18",
"d. c #F1B412",
"f. c #F4BC14",
"g. c #F4B41A",
"h. c #F9B41A",
"j. c #F4BC1A",
"k. c #FABC1B",
"l. c #C78E21",
"z. c #D39D24",
"x. c #C68E2D",
"c. c #DAA424",
"v. c #DFAB25",
"b. c #D9A729",
"n. c #E1AB24",
"m. c #E2AF29",
"M. c #EAA42C",
"N. c #EAB525",
"B. c #E4B22A",
"V. c #EBBA2B",
"C. c #E9B527",
"Z. c #F3BD22",
"A. c #F9BB25",
"S. c #F3B928",
"D. c #E7A939",
"F. c #EBC40F",
"G. c #E3C415",
"H. c #ECC411",
"J. c #E7CC15",
"K. c #ECCB13",
"L. c #EBC41A",
"P. c #ECCA1B",
"I. c #E4C31B",
"U. c #F4C316",
"Y. c #F9C616",
"T. c #F2CD16",
"R. c #F9CC17",
"E. c #F6C21A",
"W. c #FBC51B",
"Q. c #F5CB1C",
"!. c #FBCC1A",
"~. c #E6D114",
"^. c #EDD314",
"/. c #EED915",
"(. c #F3D415",
"). c #F9D316",
"_. c #F4DC14",
"`. c #F5D61A",
"'. c #FAD31A",
"]. c #F6DB1C",
"[. c #FADB1C",
"{. c #F8DA16",
"}. c #F3E414",
"|. c #F8E516",
" X c #F9E41A",
".X c #F6E817",
"XX c #DDC023",
"oX c #EFC12E",
"OX c #FCC621",
"+X c #FDCA24",
"@X c #F5C52C",
"#X c #FCCC2B",
"$X c #F5C926",
"%X c #F7DD21",
"&X c #F9DB24",
"*X c #FCD22C",
"=X c #F9D528",
"-X c #FBCE32",
";X c #F5C730",
":X c #E8DD3B",
">X c #FED232",
",X c #F9DB3A",
"<X c #F7E521",
"1X c #F9E331",
"2X c #BE9C70",
"3X c #BB9C6E",
"4X c #D29D46",
"5X c #C59A64",
"6X c #F3CD4C",
"7X c #F2D647",
"8X c #EFCE5E",
"9X c #EED94B",
"0X c #F3E649",
"qX c #ECD972",
"wX c #D9B482",
"eX c #C2B6A1",
"rX c #D1C69E",
"tX c #F9DE82",
"yX c #F5E88D",
"uX c #CCCBBE",
"iX c #D6C0A1",
"pX c #E3D6AC",
"aX c #F5E5B3",
"sX c #D7D8D8",
"dX c #D1D3CD",
"fX c #E6DFD4",
"gX c #F0E7D7",
"hX c #DDDFE3",
"jX c #E6E7E8",
"kX c #F2EFEA",
"lX c None",
/* pixels */
"lXlXlXlXlXlXlXlXlXlXlXlXlXlXlXlXlXlXlXlXlXlXlXlXlXlXlXlXlXlXlXlXlXlXlXlXlXlX.X|.}.}.}.}././.lXlXlXlXlXlXlXlXlXlXlXlXlXlXlXlXlXlX",
"lXlXlXlXlXlXlXlXlXlXlXlXlXlXlXlXlXlXlXlXlXlXlXlXlXlXlXlXlXlXlXlXlXlXlXlX X{._._._.}.}..X*.O.}.}.}.lXlXlXlXlXlXlXlXlXlXlXlXlXlXlX",
"lXlXlXlXlXlXlXlXlXlXlXlXlXlXlXlXlXlXlXlXlXlXlXlXlXlXlXlXlXlXlXlXlXlX^ E T J H H J A +.4.G.^.}.}.}.}.}.lXlXlXlXlXlXlXlXlXlXlXlXlX",
"lXlXlXlXlXlXlXlXlXlXlXlXlXlXlXlXlXlXlXlXlXlXlXlXlXlXlXlXlXlXlXlXq p q 7 7 q 7 q 8 8 8 r b @.J.}.}.}.}.}.lXlXlXlXlXlXlXlXlXlXlXlX",
"lXlXlXlXlXlXlXlXlXlXlXlXlXlXlXlXlXlXlXlXlXlXlXlXlXlXlXlXlXlXlX8 8 8 8 8 8 8 w 8 8 8 8 8 8 w b o./.}.}.}.}.lXlXlXlXlXlXlXlXlXlXlX",
"lXlXlXlXlXlXlXlXlXlXlXlXlXlXlXlXlXlXlXlXlXlXlXlXlXlXlXlXlX8 8 8 7 8 8 8 w 8 8 8 8 8 8 w 8 8 8 4 D J.}.}.}.}.lXlXlXlXlXlXlXlXlXlX",
"lXlXlXlXlXlXlXlXlXlXlXlXlXlXlXlXlXlXlXlXlXlXlXlXlXlXlXq 8 8 8 8 8 8 8 8 8 8 8 8 8 8 8 w 8 8 8 w 8 K F.}.}.}.}.lXlXlXlXlXlXlXlXlX",
"lXlXlXlXlXlXlXlXlXlXlXlXlXlXlXlXlXlXlXlXlXlXlXlXlXp r 8 7 8 8 7 8 8 8 8 8 8 8 8 8 w 8 8 8 w w 8 8 t K H.}./.K.}.lXlXlXlXlXlXlXlX",
"lXlXlXlXlXlXlXlXlXlXlXlXlXlXlXlXlXlXlXlXlXlXlX X^.J.I.u.#.J p q 8 q 8 8 8 8 r 8 8 8 r w 8 8 8 8 w w 8 A K./.m K.}.lXlXlXlXlXlXlX",
"lXlXlXlXlXlXlXlXlXlXlXlXlXlXlXlXlXlXlXlXlXlXs.a.s.K.(.|.}.O.#.*.b 8 8 8 8 8 8 8 8 8 w w 8 6 t 8 8 8 w u F ^.~./._.lXlXlXlXlXlXlX",
"lXlXlXlXlXlXlXlXlXlXlXlXlXlXlXlXlXlXlXlXa a w 8 w t z E u.-.^..X/.#.p 8 8 8 8 8 8 8 8 w 8 w w 8 w 8 8 8 4 1._._._._.lXlXlXlXlXlX",
"lXlXlXlXlXlXlXlXlXlXlXlXlXlXlXlXlXlXq 8 q q 7 8 8 8 7 8 t K t._. X}.G.n 8 8 r 8 t 8 6 8 w w r w w w 8 r 8 J K._._._.lXlXlXlXlXlX",
"lXlXlXlXlXlXlXlXlXlXlXlXlXlXlXlX8 9 8 9 8 7 8 8 8 8 8 8 8 6 u D K.}.|.^.T 8 8 q 8 8 8 w 8 w 8 w 8 t 8 8 w w X.(.{.{.(.lXlXlXlXlX",
"lXlXlXlXlXlXlXlXlXlXlXlXlXlXlX8 8 8 8 8 8 8 8 8 8 7 q 8 8 8 6 r K H.}..X/.J 8 q w 8 8 w 6 w w w w 8 w w w 8 N H.(.(.{.lXlXlXlXlX",
"lXlXlXlXlXlXlXlXlXlXlXlXlX8 8 7 8 8 7 8 8 8 q 8 7 q 8 8 8 8 8 8 8 J H.}.}./.b 8 8 w 8 w r 8 r 8 w 8 8 w w w t 6.(.{.).lXlXlXlXlX",
"lXlXlXlXlXlXlXlXlXlXlX7 8 8 7 8 8 8 q q 7 7 8 8 8 8 7 q w 8 8 r 8 8 K H.}..XG.p 8 w 8 w 8 w w w 8 w w w w w w S T.).).).lXlXlXlX",
"lXlXlXlXlXlXlXlXlXa u u r q 7 7 8 8 7 8 q 7 q 8 8 8 8 8 8 8 8 8 8 8 r D /./.-.O.8 8 8 w w 8 w w t w w w w w w z f.).R.R.lXlXlXlX",
"lXlXlXlXlXlXlXP.J.~./.^.J.*.Q p 7 7 q 8 8 8 q 7 8 8 8 8 8 8 8 8 8 8 8 4 o./.m ~.b 8 t w w w 8 8 8 w w 8 w w w y <.R.R.R.lXlXlXlX",
"lXlXlXlXlXlX(.T.(.(._.}.}.Q -./.#.a 8 8 8 q 8 8 8 8 r 6 8 8 8 8 8 8 8 8 J K.}.}.*.8 w 8 8 t 8 w w w w w w w w u t.R.U.R.lXlXlXlX",
"lXlXlXlXi.i.2.2.2.2.y.i.K.J./.}.}.~.T 8 8 7 8 8 8 8 8 8 8 8 r 8 8 8 r 8 t o.}.}.^.b 8 w 8 8 w w w w w w 8 t Q P.T.E.L g.lXlXlXlX",
"lXlX7.6.y.y.y.2.2.2.! D 2.2.K./.}.}.}.#.p 8 8 8 8 8 8 w w 8 8 w r 8 8 w 8 N K.}.}.O.8 w w w w w w w 8 w L I.`.!.!.E.&.W.lXlXlXlX",
"lXlXy.H ^ 2.@.^ R ) R D 2.<.1.i./.}.}.}.*.p 6 8 8 r r 8 8 w 8 8 8 w 8 8 8 u 1._.}.u.t 8 w w w 8 w w n ;.%X'.!.!.W.'.&X&XlXlXlXlX",
"lXy.y.6.! t 1 - > - 7 i D 1.<.<.=.^.}.}.}.*.q 8 w 6 8 8 w w 8 8 w 8 w 8 8 w D (.].(.i 8 w w w w i &.`.'.W.W.Y.!.[.&X$X#XlXlXlXlX",
"2.y.y.@.7 : > > : : : ; - i X.<.,.1.^.}.}._.E 8 8 8 r 8 6 8 w 8 8 8 w 8 8 8 H H.{.{.R w w w p E P.{.%.t.W.!.`.&X=X@Xl.Z.lXlXlXlX",
"y.y.y.u : > > : : : ; ; ; % 6 D ,.,.1./.}.}.^.b 6 r r 6 8 w 8 8 8 w 8 w 8 8 3 1.{.'.%.8 t T I.{.!.U./ a.{.%X*X#X#X#Xm.+XlXlXlXlX",
"y.<.<.r : > : : : ; ; ; ; = % 9 F ,.,.4._.}.}.=.4 6 6 r 8 w 8 w 8 8 w 8 w w t o.).'.6.n ;.`.'.Y.W.!.'.].=X*X#X#X#X+X#X+XlXlXlXlX",
"<.b $.@.u - : : ; ; ; ; % % % % 6 X.,.,.F.}././.J 8 r 6 8 8 w 8 8 8 w 8 w 8 8 D R.'.Q.`.{.!.W.W.'.].&X*X#X#X#XN.9.OX#X#XlXlXlXlX",
"i.@.6.2.1.! 8 : ; ; ; ; = % % # * 3 ,.,.,._.*.O.=.r r r w 8 8 8 w w 8 t w w 8 R !.!.!.!.W.W.!.].&X=Xc.V.>XS.z.w K OX+X+XlXlXlXlX",
"K.(.H.y.y.y.,.K 7 ; ; ; % # % # O : D X.F 3.^.G.^.b 8 8 8 8 8 w w 8 w 8 8 p Q G.Q.[.<X!.!.{.&X*X*X-Xz.C.z.a 8 7 K OX#X+XlXlXlXlX",
"y.i.K.^.H.y.y.2.:.H - % % % % # O $ u S b ,.(._._.E 8 8 8 8 8 8 w w 8 w J -.{.R.$X<X<X0XyX,X*X-X#X#Xv.n 8 8 8 6 H OX+X+XlXlXlXlX",
"6.H 6.H.^.T.i.2.7.1.^ u : # # # $ $ - F X.:.F._._.4.r 8 w w w t 8 8 b =.(.'.W.8XpX9X X0XkXqX#X-Xm.l.8 7 7 7 7 6 K OX+X+XlXlXlXlX",
"y.^ 6.7.y.H.^.K.y.<.K D D 8 = $ O $ O J :.:.4._._.K.i 8 8 8 8 8 i #.(.'.!.Y.6XsXkXqX}.:XsXaXS.l.w 7 8 7 7 6 8 8 J Z.%.Z.lXlXlXlX",
"y.y.y.7.2.y.y.K.^.K.) D 2.:.A 5 O o X t ,.:.,.(.{.(.J 8 q w t E J.T.t.W.W.R.qXhXkX7X|.:XuXfXM 6 8 7 7 7 7 8 w 5 P g.W Z.lXlXlXlX",
"2.y.6.H R 1.2.2.2.K.^.F.2.,.,.X.N - X 1 :.:.:.F.).`.^ 8 t T G.(.!.&.W !.{.].qXsXkX7X|.oXeXhX5X6 5 5 8 8 7 6 7 w K j.OXOXlXlXlXlX",
"y.2.,.t - u ^ 1.2.2.2.K.^.3.1.,.,.X.4 6 :.:.:.3.).).&.n -.(.!.!.!.E.R. X&X*X6XuXjXqX[.z.3XsXwXI H 8 8 5 7 w 8 7 J E.OXOXlXlXlXlX",
"y.i.6.t > > > i X.2.S F 3.^.K.1.:.o.:.F :.:.:.4.R.R.T.K.'.W.!.!.'.{.&X>X>X>X;XrXjXaXA. .~ 4Xb.e.w.p 9 8 8 8 7 6 J j.OXOXlXlXlXlX",
"2.2.<.y ; : : : - b J S 2.<.3.^.K.,.:.:.:.:.:.1.R.T.!.!.!.W.T.`.&X;XV.>X>X@Xl.3XfXgXM. .r.h.e.e.e.P 8 8 7 7 8 w J k.OXOXlXlXlXlX",
"y.y.<.i : & & : : : 9 H X.1.<.1.F.^.K.,.:.D A ,.U.t.E.!.!.`.%X=X>Xb.z.@Xz.p w x.eXeXD.e.w.{ ~ } r.( 7 7 8 w 8 7 H k.OXW.lXlXlXlX",
"<.D ,.y : : ; # & ; = = 7 K ,.<.,.4.K.K.F.D b ,.p.L E.{.<X=X>X>X>X;Xv.a 7 7 x [ ( D.A.g.~ < 2 x 8.8.t w 8 7 7 8 N k.OXOXlXlXlXlX",
"6.b X.i & & : : & # ; ; = = 8 R :.,.,.4.K.K.1.1.U.R.[.&X>X>X>X>XB.l.q 7 7 7 w g U S.k.w.g   2 c } r.z 7 7 8 w w ! E.k.W.lXlXlXlX",
"2.2.<.3 : # # ; ; ; & # & ; & : 4 D ,.,.,.4.K.^.`.&X*X>X>X>XV.l.q 7 7 7 9 9 w k k } k.w.C d 2 z 8.r.Y 8 8 w n 9.Q.j.P g.lXlXlXlX",
"2.2.<.3 = : : & # ; & & O o & & * , i X.,.F D i.=Xm.-X>XoXz.p 7 7 7 9 7 7 8 6 j c U h.w.~ d z ~ r.} z w i +.Q.W.OXk.9.k.lXlXlXlX",
"2.2.<.s & & ; ; & # # ; & # o # # # # - H S b 6.oXx.;Xb.a 7 7 9 9 7 7 7 7 6 6 y f v w.h.w.8.8.8.P t t E L.!.OXW.W.W.lXlXlXlXlXlX",
"2.2.<.s : ; # # & ; & o # & & o o o # # = D :.y.-X>XB.q 9 7 9 9 7 7 7 7 7 7 7 y g v 8.h.h.w./ y w T I.!.OXOXW.W.lXlXlXlXlXlXlXlX",
"y.2.>.3 # ; ; & # # & & # o # # # o X @ = D :.y.-X>XB.7 9 9 7 7 7 7 7 7 7 7 5 y Z h | g.( a 8 n t.Q.9.p.OXW.lXlXlXlXlXlXlXlXlXlX",
"1.2.1.s : # # ; ; & o # & # # o # # # X O D :.t.>X>Xv.9 9 7 7 9 9 7 7 7 7 7 7 z p.A.w./ 8 u #.Q.OXOXW N.W.lXlXlXlXlXlXlXlXlXlXlX",
"2.<.6.s : ; & $ # & # # o # # # X X $ # * S :.t.>X>Xv.7 7 7 7 7 7 7 7 7 7 8 8 a j.+X+X%.O.P.!.OXOXW.E.lXlXlXlXlXlXlXlXlXlXlXlXlX",
"6.H :.! t - ; ; # # # & # o o # # @ X X * D >.t.#X>XB.0 9 9 7 7 7 9 7 7 7 7 5 y a.OXOXOX!.OXOXW.OXlXlXlXlXlXlXlXlXlXlX!.Y.y.lXlX",
"<.K o.2.X.K t > % % $ o # % # X o $ $ @ O D :.y.#X>Xv.9 7 7 7 9 7 7 7 7 7 8 7 b j.OXOXOXOXOXOXlXlXlXlXlXlXlXlXlXlXlXR.U.d.[ B lX",
"lXlX<.2.<.1.X.N 8 : # # o o # # $ X o $ * A X.6.#X#Xm.7 7 9 7 7 8 7 7 8 7 8 n t.E.n.9.OXOXlXlXlXlXlXlXlXlXlXlXlX!.Y.7.G >.d.lXlX",
"lXlXlXlX<.<.<.<.F H 5 * # $ X X $ $ X X # J 3 t.oXl.c.9 7 7 7 7 5 7 7 q u &.Q.+XOX%.9.OXlXlXlXlXlXlXlXlXlXlX!.Q.7.>.y.{ ` ' 0.I ",
"lXlXlXlXlXlX<.<.>.<.F N 6 * # $ X X $ X O A D <.@XV.v.7 7 7 7 7 7 7 t E L.+XOXOXOXOXlXlXlXlXlXlXlXlXlXlX!.R.d.f.>.V ' d.7.lXg c ",
"lXlXlXlXlXlXlX<.,.<.S D S s - O o X X X # D :.6.#X*Xm.8 5 9 7 8 w T I.+XOX+XOXOXlXlXlXlXlXlXlXlXlXlX!.Y.Y.>.V [ q.U.lXZ x lXlXlX",
"lXlXlXlXlXlXlXlXlX<.K A ,.:.G 4 < o X X O D :.y.#X#Xv.1 9 8 q n t.$XZ.OXOXOXlXlXlXlXlXlXlXlXlXlXlX!.Y.<.[ B lXlXZ ` x lXlXlXlXlX",
"lXlXlXlXlXlXlXlXlXlXlX<.,.,.,.:.S 2 < X O S :.1.#X#Xn.8 8 i *.Q.+X%.W OXOXlXlXlXY.Y.W.!.'.'.lX!.Y.d.' Z B lXlXlXlXlXlXlXlXlXlXlX",
"lXlXlXlXlXlXlXlXlXlXlXlXlX,.,.:.:.X.N 6 = S :.6.+X#Xn.u O.J.$X+XOX$XZ.lXlXlXW.k.8.( { 5.d.!.{.'.>._ C lXlXlXlXlXlXlXlXlXlXlXlXlX",
"lXlXlXlXlXlXlXlXlXlXlXlXlXlXlX,.:.,.:.F N F :.<.+X#X$XI.+X+XOX#X+XlXlXlXlXk.f.v e j f B _ ] U. XH.lXlXlXlXlXlXlXlXlXlXlXlXlXlXlX",
"lXlXlXlXlXlXlXlXlXlXlXlXlXlXlXlX:.,.:.:.:.:.o.<.+X+X+X#X+X+X+XlXlXlXlXlXW.W.8.l lXlXlXlXlXlX5. X XlXlXlXlXlXlXlXlXlXlXlXlXlXlXlX",
"lXlXlXlXlXlXlXlXlXlXlXlXlXlXlXlXlXlX,.:.:.X.F <.@XN.OX+X+XlXlXlXlXlXlXlXh.W.E.lXlXlXlXlXlXlX]. X XlXlXlXlXlXlXlXlXlXlXlXlXlXlXlX",
"lXlXlXlXlXlXlXlXlXlXlXlXlXlXlXlXlXlXlXlX:.D 4 ,.N.P OX#XlXlXlXlXlXlXlXlXU k.!.'.lXlXlXlXlX X X XE.lXlXlXlXlXlXlXlXlXlXlXlXlXlXlX",
"lXlXlXlXlXlXlXlXlXlXlXlXlXlXlXlXlXlXlXlXlXlXD 6.OXZ.lXlXlXlXlXlXlXlXlXlXk I d.'.[.[.[. X X<X1X@X .lXlXlXlXlXlXlXlXlXlXlXlXlXlXlX",
"lXlXlXlXlXlXlXlXlXlXlXlXlXlXlXlXlXlXlXlXlXlXlXlXlXlXlXlXlXlXlXlXlXlXlXlXlXk c U 6.f.R.Q.$X@XA.r. .lXlXlXlXlXlXlXlXlXlXlXlXlXlXlX",
"lXlXlXlXlXlXlXlXlXlXlXlXlXlXlXlXlXlXlXlXlXlXlXlXlXlXlXlXlXlXlXlXlXlXlXlXlXlXj k f B _ ] q.q.h.h.lXlXlXlXlXlXlXlXlXlXlXlXlXlXlXlX",
"lXlXlXlXlXlXlXlXlXlXlXlXlXlXlXlXlXlXlXlXlXlXlXlXlXlXlXlXlXlXlXlXlXlXlXlXlXlXlXk f h _ [ >.q.lXlXlXlXlXlXlXlXlXlXlXlXlXlXlXlXlXlX"
};
